<svg xmlns="http://www.w3.org/2000/svg" viewBox="0 0 800 800" class="img-sales-icon"><path fill="#a0613f" fill-rule="evenodd" d="M328.443 69.578c4.888.469 10.901 2.736 15.632 6.068 5.277-3.01 11.617-4.323 17.75-4.99 12.288-1.334 25.068-.544 36.37 4.456 6.21 2.747 11.919 6.899 16.585 13.061 3.858-1.033 7.647-1.202 10.412-1.327 24.923-1.11 52.677 16.59 56.735 33.416 8.642-2.434 18.834-1.466 27.736.894 2.525.667 4.743 1.611 6.94 3.295 5.46 4.189 6.97 10.4 8.355 16.128 2.009 8.302 1.112 14.455.608 17.04 7.276.034 14.8 2.497 20.836 6.624 6.1 4.17 11.03 9.641 14.631 16.21a10.9 10.9 0 0 1 2.337-2.31c2.31-1.673 5.184-2.35 8.007-2.74 17.122-2.413 35.28 4.876 45.987 18.458 4.236 5.375 6.665 12.76 5.302 18.958 16.991-2.541 34.466-1.884 51.197 2.026 1.253.298 2.536.616 3.593 1.365 1.427 1.006 2.248 2.66 3.008 4.23 2.648 5.492 5.338 11.16 5.697 17.247q.045.752.03 1.512.411-.02.822-.013l-.01.01c4.527 4.579 11.866 10.41 19.883 14.024 7.114 3.203 14.792 4.712 21.372 9.28 6.58 4.569 11.97 13.603 10.121 22.494a17 17 0 0 1-.59 2.125c2.893.33 5.676.921 8.135 1.704 19.75 6.293 27.798 27.986 28.866 41.393.277 3.49 1.262 16.016-5.656 21.046-.606.441-3.378 2.454-6.92 2.218 1.263 10.232.876 20.682-1.18 30.778-1.375 6.786-3.623 13.623-8.13 18.766-4.516 5.133-11.712 8.234-18.138 6.201-3.422-1.085-6.059-3.256-8.241-5.935a16.4 16.4 0 0 1-.772 4.836c-.98 3.104-2.797 5.86-5.163 8.348l-24.382 107.855a144 144 0 0 1 2.25 3.09c6.365 8.973 10.656 15.03 12.36 21.457 2.145 8.1 1.427 22.596-9.023 30.429-2.746 2.06-6.002 3.385-9.391 3.975 1.27 8.778.476 19.437-3.174 28.63 0 0-.284.715-.877 1.92l-.187.375c-2.207 4.376-7.951 14.04-18.218 20.371-2.477 5.561-5.893 10.462-11.02 13.933q-.882.598-1.77 1.18c-3.665 6.332-8.752 13.185-15.927 19.938-4.579 4.312-7.638 7.197-12.852 9.845-10.83 5.513-20.746 4.856-22.902 4.671a40.7 40.7 0 0 1-12.41-3.059c-1.613 7.192-4.611 13.966-8.222 18.859-9.547 12.946-26.146 20.327-42.16 18.756-11.901-1.166-25.488-3.352-32.161-13.038-8.026 7.782-30.774 27.139-62.195 25.204-8.458-.513-20.314-2.772-31.38-11.406-4.164-3.248-7.528-7.834-9.363-12.806l-.73.014c-20.491 13.173-31.524 20.493-42.803 20.512-15.52.031-32.16-3.531-42.692-14.937-2.374-2.57-4.256-5.622-5.601-8.907a983 983 0 0 1-7.738-.702l-.594.278-.664.307c-2.402 1.109-60.04 26.64-92.078.36-6.047-4.962-10.031-10.824-12.524-16.147q-2.616-.49-5.248-.998c-19.958 6.227-52.096-.183-72.068-7.515-16.311-5.985-22.511-12.053-26.022-18.274l-.01.01q-1.042-1.028-2.204-2.195a28 28 0 0 1-1.946-1.966 432 432 0 0 1-2.44-2.51l-.298.234v-.01a45 45 0 0 1-1.73-2.342 385 385 0 0 1-12.21-13.488c-16.547-19.167-24.821-28.746-27.593-39.782-2.877-11.447-1.235-24.455 2.702-34.785-8.989-2.178-17.313-7.78-22.37-15.591-11.28-17.432-2.976-39.042.329-47.122 5.97-14.579 16.042-24.82 25.71-31.813a21.2 21.2 0 0 1-4.4-3.657c-8.848-9.701-8.664-25.624-1.324-36.516 2.664-3.955 8.565-9.4 15.148-13.346a16.3 16.3 0 0 1-4.883-5.062c-2.74-4.445-3.09-9.989-2.423-15.173 1.977-15.405 13.05-29.149 27.382-34.936-4.487-14.629 8.538-32.314 23.983-31.82l.136.005.444-1.455.007-.064.005.022q1.777-5.805 3.686-11.58c-6.646-7.061-12.995-15.353-12.611-24.918.41-10.236 8.51-18.54 17.204-23.972a69 69 0 0 1 1.559-.945l.789-.457-.074-.011c-8.46-1.506-14.926-10.505-16.04-18.575v.01c-1.467-10.625 3.429-21.148 9.68-29.864 1.355-1.9 2.793-3.747 4.486-5.349a24.2 24.2 0 0 1 5.992-4.134c-6.08-10.206-4.059-26.206 1.687-35.185v.01c5.873-9.18 15.6-15.242 26.248-17.878-.47-12.847 5.381-25.885 15.53-33.823 7.363-5.758 16.786-8.678 26.12-8.493.216-.858.525-1.821.929-2.923 3.829-10.471 12.985-18.386 23.27-22.688s21.64-5.349 32.788-5.287c5.598.031 11.792.775 17.353 3.208a17.6 17.6 0 0 1 4.48-5.908c4.527-3.87 10.47-5.605 16.301-6.827a127.8 127.8 0 0 1 38.227-2.115M711.621 423.55c-3.582 2.26-7.467 4.29-11.243 6.207-8.469 4.292-18.128 8.768-27.89 6.981-5.198-.945-9.564-3.565-13.434-6.59-6.408 9.808-18.954 23.32-36.547 29.977-20.068 7.597-52.793 8.48-63.51-9.774a22.4 22.4 0 0 1-1.426-2.89l-.078-.198c-2.5 10.599-14.76 18.084-20.124 21.424-5.143 3.193-33.485 20.8-58.337 5.656-7.144-4.354-12.031-10.219-15.362-15.89-2.83 6.634-7.928 10.936-9.89 12.595-3.47 2.926-6.395 4.497-10.809 6.293a106.3 106.3 0 0 1-33.936 7.628c-4.63.257-10.697 0-18.252-2.135-6.805-1.93-24.451-6.92-30.805-22.699a32 32 0 0 1-1.303-3.968c-2.099 1.393-4.501 2.373-6.858 3.3-31.688 12.474-67.975 21.868-99.068 7.988-6.046-2.7-12.103-6.663-14.443-12.864-2.402-6.355-.298-13.582 3.13-19.434a58 58 0 0 1 2.263-3.534c-.634.04-1.267.086-1.893.157-5.984.688-11.435 3.655-17.03 5.893-12.472 4.979-26.35 6.395-39.55 3.921-4.83-.907-17.258-3.465-27.012-13.052-.49 1.637-.989 3.268-1.485 4.89L103.582 607.02c.26 2.539.485 5.383.62 8.43 5.943-3.24 13.49-3.192 17.441-3.23 26.937-.239 75.605 36.99 89.585 48.15 43.505-14.162 73.712-9.776 73.712-9.776 1.954.284 3.962.576 5.999.885l1.114.17c2.418.373 4.87.772 7.312 1.213l1.126.206c13.503 2.51 26.503 6.359 31.675 14.113a77 77 0 0 1 4.233-1.002c29.163-6.16 60.256-2.813 87.448 9.403l.01.01c1.412.25 2.924.576 4.375 1.007q.818-.249 1.63-.483c28.075-8.08 57.752-10.564 86.771-7.248 1.02.093 1.95.221 2.8.377 5.899-4.981 12.994-8.528 20.143-11.757l1.318-.592a701 701 0 0 1 2.634-1.168v.01c12.681-5.608 31.932-18.332 43.798-6.003 6.795-6.843 14.996-12.473 17.205-13.948l.195-.13.156-.103c11.98-7.894 22.789-10.738 29.522-11.919.958-.167 2.524-.441 4.456-.715-.448-2.618-.867-6.087-.647-9.12.902-12.324 13.239-29.92 31.088-42.132-2.758-6.957-1.147-14.714-.016-19.496 3.37-14.243 13.113-23.576 19.712-28.535zM116.946 318.204l-.313.96a563 563 0 0 0-7.703 25.804l-1.77 16.56c-.268 2.515-.586 5.154-2.095 7.176-.73.983-1.61 1.679-2.584 2.125a634 634 0 0 0-1.822 8.282c2.548 13.422.95 26.863-4.37 38.727q-1.381.28-2.81.533-.18 1.155-.354 2.309c2.71 8.742.909 20.909-.306 27.454-1.011 5.468-2.108 11.125-5.058 15.785q-.425 4.29-.806 8.572c8.33 29.65-2.956 48.819-2.287 71.94.045 1.544.119 5.365-1.681 9.343 4.93 6.415 9.051 14.82 11.423 19.648h.01c1.342 2.729 4.28 9.08 6.502 17.718l48.93-159.812c.963-3.151 1.936-6.331 2.84-9.534-6.144-9.425-10.713-24.523-4.421-34.498q.29-.458.604-.896c-11.898-2.1-23.244-7.939-30.599-18.076-9.423-12.986-10.214-33.6.657-45.191q.87-.926 1.793-1.75c-1.355-.888-2.607-2.016-3.78-3.18m254.94-214.28-1.414.19-3.529.482-2.111.289-1.405.19c-2.105.283-4.2.556-6.282.804-6.87.821-14.722 1.032-19.731-3.684-14.716 5.164-36.443 3.696-48.943 2.617a51 51 0 0 1-4.83-.64 6.9 6.9 0 0 1-.785 2.087c-2.894 4.99-10.46 2.752-22.809 5.852-4.213 1.053-6.695 2.156-8.975 3.364l-.504.27q-.42.229-.839.461l-.422.235-.426.237c-2.933 1.63-6.334 3.464-13.336 5.617-5.08 1.563-9.366 2.856-14.15 3.309 3.054 7.754-.041 17.73-6.186 23.866-7.35 7.34-17.738 10.564-27.695 13.54l-.332.1-.667.197c-3.117.916-6.365 1.778-9.776 2.203q-.077.44-.167.868c-2.464 11.55-8.654 21.908-14.762 32.02a53 53 0 0 1-4.644 6.512c3.087.39 6.467 1.29 7.55 4.114.164.42.256.873.348 1.314 2.587 12.627 1.253 26.035-3.777 37.913-2.126 5.014-5.426 10.101-9.91 12.857 4.003 1.535 7.566 4.063 10.023 7.562 2.915 4.158 4.075 9.27 4.968 14.28a189 189 0 0 1 2.67 22.935c.153 2.834-.019 6.06-.943 8.74a24 24 0 0 1 8.158 5.654c8.931 9.475 9.598 24.546 9.208 38.046a569 569 0 0 1-.52 12.94c16.737 3.244 45.356 15.765 77.325 38.243 1.99-.663 4.121-1.046 6.188-1.35 33.707-4.948 69.005 1.899 98.491 18.942q.281-.195.526-.36h.02c17.79-12.187 40.507-16.406 61.622-12.587 8.397 1.52 17.656 3.819 25.663 11.95.773.788 2.608 2.652 4.553 5.342 3.227-8.293 8.006-11.758 9.972-13.001 11.61-7.32 37.94-5.225 50.863-3.45 12.113 1.667 29.547 7.428 35.606 19.37l.037-.425c.962-10.446 6.562-21.256 14.492-27.537v.02c5.235-4.147 16.64-5.05 39.243-6.693 11.654-.846 20.068-1.116 26.184-.872-.697-2.952-.949-5.966-.654-9.025.102-1.037.267-2.094.749-3.06 1.97-3.952 8.12-5.122 13.375-5.656a426.4 426.4 0 0 1 59.948-1.796l-.01-.01a71 71 0 0 1 5.66 4.23c-2.885-4.271-5.968-8.42-8.216-12.895-8.407-16.755 8.767-25.923 22.183-29.547l9.827-2.653c-.863-.629-1.799-1.325-2.816-2.1-10.624-8.09-15.942-12.134-18.754-16.693-1.204-1.95-8.927-14.441-4.615-23.602-3.664-1.572-7.187-3.815-10.618-6.135l-.916-.623q-.457-.31-.912-.623c-4.773-3.265-9.536-6.519-14.299-9.784-7.853-5.369-16.824-13.181-15.983-24.043q.027-.342.067-.678c-3.75-.733-7.541-2.655-11.275-4.738l-.703-.395q-1.055-.595-2.1-1.191l-.697-.395a99 99 0 0 0-4.128-2.233c-5.15-2.593-10.72-4.089-16.338-5.475l-1.875-.46c-3.125-.764-6.252-1.528-9.318-2.463-7.301-2.224-14.7-5.853-19.479-12.74-9.107-.743-19.882-5-26.108-8.07v-.01c-7.074-3.493-13.475-9.058-16.904-16.036-15.844.337-31.76-3.166-45.98-10.173-5.554-2.73-11.374-6.735-12.4-12.833-.54-3.235.436-6.479 2.227-9.267-8.08-1.296-13.356-2.334-19.083-4.818-5.255-2.279-14.012-6.088-17.871-14.66a21.1 21.1 0 0 1-1.93-8.654c-.011-2.8.486-5.318 1.17-7.31-3.067-.367-6.447-.69-10.09-.914-16.794-1.026-22.789 1.048-34.748-2.012-8.612-2.197-17.327-4.425-21.228-12.247-2.281-4.577-2.436-10.11-.902-15.05-9.188-.416-18.677.648-28.095 1.905M98.747 371.434l.254.833.182-.81a9 9 0 0 1-.436-.023m394.319-109.846c1.53.79 5.44 4.024 3.716 5.04-.185.103-1.027.873-1.212.986-.084.277.101.592.307.93l.095.158c.41.692.744 1.47-1.007 2.218-.986.493-2.67 1.13-3.973 1.365-2.248 1.15-4.29 2.002-6.6 2.916-1.602.677-4.22 1.334-5.872 1.683-.944.914-4.589 2.454-4.589 2.454-.636.38-1.847.554-2.289.729-1.262.657-6.025 3.922-4.414 4.753 1.152.592 4.845.3 8.633-.132l.734-.085c2.078-.245 4.137-.518 5.774-.696 4.815-1.325 9.321-2.115 10.183-2.27 2.663-.598 5.227-1.517 7.45-1.44.646-.166 1.136-.314 1.358-.428 2.69-1.324-1.109-3.193 2.34-5.225 1.632-.965 5.78-2.433 7.812-3.1 1.221-.278 2.443-.545 3.603-.35 2.618-.657 7.658-1.663 10.142-.985.41.113.985.308 1.57.41.319.165.38.4.534.575 2.269 1.879 1.91 2.895-1.488 4.456-1.04.481-2.12.899-3.21 1.3l-2.183.795c-1.09.4-2.17.815-3.21 1.293l-.177.082c-.557.267-1.016.61-.356.944.318.165.729.277 1.17.206 1.437.04 5.204-.216 6.683-.462 2.278-.637 6.508-1.253 8.766-.093.965.503 1.868 1.571.472 1.95-.81.39-1.848.648-2.669 1.13-1.078.544-2.391 1.684-4.178 2.567-1.878.934-3.459 1.427-5.82 2.012-2.207 1.57-6.395 3.429-9.516 4.733-.626.277-1.755.503-2.628.749-2.422 1.16-4.947 2.567-6.96 3.942-.461.36-.584.698-.02.996.4.205.565.287 1.078.257 4.23.174 9.464-.329 12.554-.544 1.499-.534 5.615-.811 7.093-1.16 2.152-.445 3.8-.964 5.837-1.057.763-.19 1.348-.358 1.595-.483 1.189-.586 1.11-1.277.95-2.042l-.051-.244-.021-.1-.038-.204c-.137-.821-.068-1.711 1.5-2.636 1.633-.965 5.78-2.443 7.813-3.1 1.221-.278 2.443-.544 3.603-.35 2.617-.656 7.657-1.662 10.131-.985.41.113.986.308 1.57.41.319.165.38.401.535.576 2.268 1.878 1.909 2.895-1.489 4.455-2.771 1.283-5.83 2.105-8.602 3.388-.626.277-1.263.657-.534 1.027.318.164.74.277 1.17.205 1.438.041 5.215-.216 6.683-.462 2.279-.637 6.508-1.253 8.766-.092.965.503 1.879 1.57.473 1.95-.811.39-1.858.647-2.67 1.13-1.077.544-2.391 1.683-4.177 2.566-1.89.934-3.47 1.427-5.82 2.012-2.208 1.57-6.396 3.43-9.506 4.733-.626.277-1.755.503-2.628.75-2.422 1.16-4.948 2.566-6.96 3.942-.462.359-.585.698-.02.995.4.206.564.288 1.078.257 4.229.175 9.474-.329 12.554-.544 1.499-.534 5.615-.821 7.093-1.16 1.162-.24 2.177-.502 3.186-.707a93 93 0 0 1 5.139-2.712c2.33-1.109 5.307-1.981 8.705-2.73 2.176-.483 5.738-.452 7.678.554 1.047.544 1.396 1.324-.041 1.991-1.334.616-3.192.462-4.691.986-1.147.3-2.646.904-4.16 1.546l-.824.352c-1.78.763-3.495 1.51-4.583 1.798-1.016.78-2.115 1.52-3.367 2.084-.719.339-1.858.647-2.751 1.088-1.345.616-1.9 1.838-3.234 2.454l-3.213 1.457c-.81.39-4.485 3.008-4.968 3.563-.205.298-.544 1.13-.062 1.375 1.448.75 7.196.308 10.943.237 1.49-.357 4.895-.927 8.423-1.52l.964-.161.842-.142c3.079-.52 6.02-1.034 7.622-1.411 2.874-.667 4.733-.948 6.158-.893 1.424-.477 3.043-.982 4.704-1.466l.77-.223.386-.11.773-.215c1.672-.462 3.327-.885 4.814-1.22 1.14-.319 2.576-.277 3.962-.462 2.156-.288 5.892-.267 7.586.605 3.47 1.797.81 5.246-3.47 7.156-3.54 1.585-6.69 2.315-9.777 2.982l-1.087.234c-.905.195-1.808.393-2.716.613-.616.185-2.66.236-3.419.144-2.35.493-4.711.38-8.058-.144a9.4 9.4 0 0 0-1.611-.03c-.863.061-3.337.985-4.045 1.231-1.52.72-8.253 5.688-6.23 6.735 1.447.75 5.553 1.365 7.78 1.211 3.767-.266 8.88-1.14 13.037-1.098 3.757-.975 10.11-1.51 11.137-1.673 1.212-.175 2.125-.811 3.337-.986 1.158-.18 2.55-.188 3.667.028.494-.093.982-.174 1.455-.233 1.59-.585 3.336-.986 4.999-1.438 4.434-.924 13.54-1.837 17.358-.164.41.113.883.462 1.365.709 2.823 1.457 6.498-.36 9.3-1.12 2.023-.656 4.517-.882 6.498-1.16 3.039-1.447 13.56-4.445 17.184-2.566.965.503 1.15 1.201.164 1.694-1.252.564-8.776 2.597-10.86 3.028-1.15.411-2.156 1.099-3.203 1.355-1.256.358-4.692 1.189-8.275 2.06l-1.197.29-.796.195c-3.964.967-7.644 1.884-8.25 2.157l-9.033 4.271c-.73.524-2.125.811-2.587 1.17-1.114.478-2.007 1.096-2.86 1.737l-.726.551c-.604.46-1.214.913-1.896 1.316-2.186 1.386-4.444 2.628-6.63 4.014-.904.534-2.156 1.098-3.06 1.632-.205.298-.523.935-.03 1.089 1.21.626 4.239.082 5.44 0 1.026-.072 7.678-1.058 8.52-1.017 4.342-.872 13.786-2.525 19.196-3.039 1.19 0 3.09.493 3.9.914.883.462.832.934-.072 1.468-1.611.78-5.03.914-7.79 1.304h-.011c-1.223.175-5.095.776-9.135 1.367l-.934.136-.764.11c-3.939.566-7.707 1.063-9 1.087-1.683.636-3.736.78-5.296 1.078-1.745.4-3.018 1.16-4.968 1.15-1.776-.113-5.718-1.355-6.93-1.982-2.809-1.454-.994-3.353 1.188-4.797l.274-.178q.138-.088.276-.173l.288-.174q.36-.214.705-.406c.811-.483 2.597-1.273 3.655-1.622.4-.438 1.319-1.097 2.235-1.784l.322-.243c1.389-1.058 2.625-2.132 1.836-2.542-.482-.246-1.345-.195-1.858-.154-5.779.832-11.189 2.146-17.173 2.474-1.283.042-3.182-.441-3.993-.862-2.988-1.54-.503-4.887 2.217-6.498.741-.44 1.85-.934 3.114-1.42-4.748.721-9.25 1.469-10.926 1.307-3.993.75-7.463.657-10.46.02-1.252-.246-2.525-.205-3.695-.4-1.253-.247-3.963-1.15-4.928-1.643-3.315-1.612-.749-4.209 1.376-5.82.739-.524 1.273-1.561 1.991-1.982.822-.483 1.355-.708 2.238-1.057 1.55-1.007 2.946-2.095 4.558-2.875l1.144-.535q-.487.022-.918.022c-.984.5-5.459 1.09-10.197 1.52l-.92.082-.775.065c-4.65.38-9.186.58-10.589.365-1.499-.277-4.352-.646-5.564-1.273-1.447-.75-2.576-2.135-1.724-3.008 1.375-1.796 5.03-4.137 8.048-5.39 1.49-1.135 2.794-2.12 4.14-3.07-1.417.17-2.752.334-3.863.514-1.817.267-7.483.852-9.721.298-3.264.318-6.16.339-7.555-.092-.41-.113-1.489-.37-1.735-.493-3.788-1.96.123-5.174 3.336-6.622.719-.328 1.766-.595 2.556-.893l10.932-5.308c.893-.441 4.63-2.73 4.589-3.254-3.696-.4-5.625-.606-8.54-1.201-1.54.103-3.06-.072-4.486-.205-.136-.02-.37-.006-.683.036l-.057.035c-.886.3-1.66.376-2.411.428-1.957.408-4.403.947-6.2 1.152-3.033.484-6.473.793-8.87 1.182-1.817.267-7.483.852-9.721.298-3.264.318-6.149.339-7.555-.093-.41-.113-1.489-.37-1.735-.492-3.788-1.961.123-5.164 3.336-6.622.719-.339 1.766-.596 2.556-.893l10.933-5.308c.893-.441 4.619-2.73 4.598-3.254-3.695-.4-5.635-.606-8.54-1.201-1.54.113-3.049-.072-4.486-.206-.375-.056-1.514.16-2.947.457a25 25 0 0 1-1.941.407c-1.88.39-3.888.78-5.259.858-.545.098-1 .192-1.309.28l.01.02c-.976.217-4.05.847-7.34 1.455l-.709.13-.852.154c-3.548.633-7.005 1.163-8.057 1.054-5.635 1.099-11.702 1.386-14.37 0-2.495-1.293-3.214-4.178-.996-5.852.451-1.067 2.37-2.3 3.818-3.151 1.088-.647 3.203-1.355 4.28-1.91.884-.349 1.828-1.17.935-1.622-.483-.246-1.848-.246-2.525-.205-6.283.77-12.637 2.104-19.175 2.043-1.438-.041-4.64-1.099-5.77-1.684-3.305-1.714.165-5.554 3.244-7.371 1.632-.965 3.747-1.684 5.543-2.567 2.146-1.006 5.215-1.93 8.161-2.412 7.576-2.515 27.008-4.62 33.783-1.12m121.908 73.095c-10.03.842-18.016 3.142-25.53 6.694-.451.267-2.258 1.242-1.293 1.745.49.255 3.212-.104 6.152-.584l.59-.097.703-.12c2.925-.498 5.777-1.047 6.618-1.17 2.074-.339 4.578-.647 6.303-.965 3.541-1.386 6.857-2.177 10.06-3.542.81-.39 2.36-1.396 1.15-2.022l.01.01c-1.13-.585-3.47-.093-4.763.051m-22.563-14.906c-3.562.77-11.887 3.9-14.997 5.112-.719.339-1.283.945-.647 1.273 1.211.626 8.325-.718 9.783-.872 1.878-.842 5.05-1.91 7.442-2.885 1.262-.657 2.289-1.53.43-2.495l.011.01c-.4-.205-1.242-.338-2.022-.143m2.905-19.62c1.293.668 1.56 2.116-.03 2.7-1.869.75-4.138 1.284-5.821.401l.01.01c-1.611-.831-1.694-2.484 0-3.315 1.427-.668 4.476-.503 5.841.205m-233.1-26.496c2.115 2.187 2.444 5.03 1.294 7.782h.01c.164.225.164.102.288.061.78-.205 1.468-.647 2.34-.79 5.533-.924 10.891 5.585 6.816 10.687-3.931 4.917-14.946 5.359-20.869 5.307h-.758c-1.099-.004-1.418-.112-1.623-1.704-.616-4.835-.924-15.79 1.683-19.865 2.782-4.332 7.083-5.348 10.82-1.478m177.463 16.61c-.8.39-2.515 1.315-1.724 1.828.082.041.595 0 .934-.02.525-.076 1.79-.374 3.121-.718l.617-.162c1.54-.409 3.032-.845 3.437-1.04.811-.39 1.622-.873.657-1.376-1.53-.79-6.138.944-7.042 1.489m-28.855-14.947c-.81.39-2.515 1.314-1.724 1.827.082.041.595 0 .934-.02.565-.082 1.989-.42 3.429-.798l.616-.163c1.428-.385 2.752-.777 3.13-.959.811-.39 1.622-.873.657-1.365v-.01c-1.53-.791-6.139.944-7.042 1.488m-68.314-52.46c3.952 2.043.76 4.917-1.304 5.862-.749.616-2.905 2.618-5.45 3.316-.565.513-.935.821-1.663 1.252-.539.321-1.46.793-2.341 1.29l-.328.188c-1.353.786-2.48 1.597-1.776 1.961.89.458 5.985-.461 11.549-1.396l.728-.122.857-.142.418-.068.837-.136c5.156-.827 10.175-1.474 12.167-.887.338.072.667.144.985.308.4.205 1.109.77 1.16 1.098.941 1.528-.79 2.502-2.683 3.574l-.356.203-.356.205-.177.104c-1.078.545-1.766 1.397-2.659 1.838-1.095.518-4.053 1.9-6.996 3.353l-.766.38c-2.799 1.396-5.433 2.793-6.26 3.494-.205.298-.41.688.072.945.883.462 2.648-.133 3.51-.298 4.517-.883 9.024-1.766 13.52-2.453 1.817-.267 3.264-.319 4.999-.637 3.11-.503 5.902-1.17 9.023-1.766.605-.092 1.232-.37 1.899-.318 1.026-.072 2.012.236 2.669.472 1.293.668 1.991 2.043.903 2.68-.452.267-1.252.554-1.704.831l.01-.01c-2.412 1.16-5.512 2.28-8.479 3.05-.893.348-2.37.687-3.326.892-.39.503-3.715 2.197-6.2 3.132-1.067.451-2.022.657-2.658 1.036-2.577 1.078-5.061 2.013-7.463 3.08-.636.38-1.591.585-2.3.822-1.313.328-2.463.831-3.633 1.437-.534.226-1.078.544-1.283.842-1.89.934-4.147 1.468-5.851 2.3-.719.338-1.18.697-1.633.964l-4.824 2.228c-.472.462-1.684 3.86-4.014 4.969-1.878.842-4.414.729-6.025-.103-.883-.462-1.047-1.345-.893-1.97.215-.391 1.2-.894 1.827-1.264.841-.677.852-1.57 1.447-2.371.288-.257 2.279-2.238 4.958-2.659.565-.513 1.796-.883 3.039-1.448 1.796-.882 3.613-1.242 5.132-1.97 0 0 2.578-1.205 5.225-2.459l.482-.228c.882-.418 1.755-.834 2.526-1.205.893-.441 1.632-.965 2.648-.944.762-.32 1.62-.691 2.47-1.077l.424-.194c2.462-1.137 4.696-2.341 4.066-2.671-.54-.28-2.692.082-4.838.52l-.585.12c-.872.182-1.719.369-2.43.52-7.144 1.632-14.012 3.1-20.448 5.205-.708.236-1.755.503-2.772.472-.985.493-1.888 1.027-3.428 1.047-.421-.02-1.324-.287-1.817-.534-2.34-1.211-.75-2.597 1.314-3.542.81-.39 1.878-.841 3.1-1.21 1.17-.607 2.094-1.325 3.357-1.982.8-.39 1.775-.688 2.494-1.12 2.494-1.118 4.527-2.586 7.278-3.675 1.17-.605 2.35-1.303 3.367-2.084 3.408-1.653 7.083-3.47 10.347-5.4.054-.077.194-.213.36-.377l.173-.172c.444-.449.926-1.012.504-1.227-.729-.38-3.244.134-4.024.236-1.458.144-4.62.226-5.923.555-1.57.39-3.654.821-5.358.842-1.18.698-2.833 1.047-3.88 1.314-3.388.657-5.246 1.406-8.47 2.156-6.713 1.55-12.615 3.531-19.103 5.4-1.488.43-2.668 1.129-4.075 1.611-3.09 1.017-5.912 2.064-9.382 2.69-1.9.318-3.439 1.14-5.564 1.15-.76-.092-1.652-.452-2.3-.79-1.128-.586-1.313-1.284-.04-2.033.083-.05.646-.224 1.474-.462l.567-.162c.732-.208 1.6-.449 2.5-.695l.512-.14.622-.167c2.278-.616 4.488-1.191 5-1.29.442-.174 1.304-.236 2.002-.38 0 0 5.287-2.597 6.59-2.823.914-.636 2.074-1.14 3.06-1.54 2.124-.81 4.65-1.417 6.6-2.115 1.94-.708 3.747-1.683 5.45-2.505 1.438-.667 3.357-1.18 4.784-1.848 0 0 2.673-1.282 5.63-2.653l.51-.236.918-.422.566-.259c2.443-1.113 4.718-2.106 5.495-2.312.667-.657 1.406-1.283 2.217-1.663 1.704-.832 7.596-4.322 5.595-5.452-1.13-.585-3.573-.739-4.702-1.324-1.611-.831-2.782-1.838-.893-2.782 2.505-1.211 9.475 1.19 11.497 2.228m11.076 45.654c-.427.215-1.508.832-2.569 1.546l-.333.229c-1.492 1.038-2.798 2.207-1.984 2.629 1.858.862 9.834-.544 12.4-.719 2.659-.236 7.914-.831 11.004-1.14 3.295-.605 14.69-2.258 17.461-3.531 1.622-.873.175-2.423-1.037-3.05l-.01-.01c-1.611-.83-5.102-.83-6.816-1.416-7.73-.082-22.306 2.73-28.116 5.462m-129.7-91c2.177 1.13 1.961 2.32.627 2.936-.811.39-5.502 1.376-7.196 2.115-2.527.738-4.65 1.749-6.762 2.782l-1.152.565a86 86 0 0 0-3.207 1.708l-.494.277-.496.281-.494.284c-3.201 1.85-6.148 3.772-5.605 3.99.762.393 6.817-.662 13.364-2.069l.895-.194c7.032-1.535 14.377-3.416 16.187-4.308 1.324-.524 4.034-1.13 6.19-1.427 1.18-.698 2.884-.719 4.034-1.13 1.653-.348 3.275-.42 4.65.298 3.624 1.88 1.745 3.614-1.478 5.072-3.757 1.776-8.079 3.264-11.928 5.092-2.145 1.006-11.866 7.74-10.573 8.408.241.123 1.352.07 2.538.017l.51-.022c1.02-.042 2.013-.064 2.475.046 1.193-.296 3.384-.615 6-1.008l.097-.06c.596-.352 4.633-1.053 8.722-1.64l.645-.092c.753-.106 1.501-.207 2.224-.3 1.546-.457 3.545-.918 5.314-.565.36-.02.634-.024.802-.01 2.115-.719 4.527-.976 6.734-.945 1.933-.072 3.96-.665 6-1.322l.72-.234c3.845-1.253 7.702-2.542 11.039-.815 1.365.708 1.94 1.714.585 2.515-2.176 1.283-6.734 1.037-8.643 1.355-.339.278-1.46.768-2.606 1.24l-.49.2c-1.22.494-2.343.93-2.437 1.024-1.889 1.027-3.86 2.73-5.482 3.603-.513 1.643-3.367 3.686-4.147 5.493a5 5 0 0 1-.513.574l-.131.132c-.415.423-.56.686.439 1.203 1.345.093 6.693-.554 10.676-.503 1.397-.35 2.993-.511 4.244-.611q.237-.053.426-.087c7.71-1.345 13.047-2.803 14.864-3.87.729-.431 1.293-.945.924-1.53-.03-.513-.524-.677-1.17-1.006-1.448-.75-3.316-.811-4.363-1.355-.647-.339-.39-1.201.164-1.53 3.172-1.878 8.192 1.325 9.783 1.55 2.268.267 5.02-1.632 7.575-1.714 3.039-1.345 9.968-3.388 13.591-1.51 1.294.668 1.9 2.095.565 2.711-2.135.904-5.533 2.464-7.976 3.11-.667.658-2.186 1.387-2.156 1.9.35.688 2.72 1.612 3.696 2.012 1.129.585 1.735 1.304.051 1.94-2.515 1.212-8.54-1.2-10.788-1.663-1.253-.246-8.87 1.848-10.03 2.444-.718.339-1.005.688-1.642 1.057-2.864 1.335-5.481 2.793-8.17 4.117-2.249 1.15-4.2 2.751-6.796 3.223-.213.254-.743.65-1.282 1.079l-.269.216c-.843.689-1.577 1.41-.975 1.724.73.38 4.6.77 5.882.636 3.511-.195 6.283-.77 8.644-.554 2.874-.626 4.7-.277 7.113-.544 4.815-.524 3.336-.185 7.71-1.345.872-.247 2.093.277 2.658.575 1.293.667 1.037 1.447-.41 2.3-1.417.574-3.368.472-4.835.718h-.021c-.78.103-1.653.35-2.258.442-4.076.8-4.055.523-9.167.687-3.244.134-7.062.062-9.495-.195-2.792.668-8.007.986-12 .924-.852.062-1.673-.256-2.32-.595-1.694-.873-2.002-2.752-.616-3.84.532-.444 3.822-2.276 7.348-4.157l.732-.39.733-.387c3.42-1.805 6.735-3.484 7.673-3.833.075-.163.271-.44.255-.679-2.203.778-9.192 1.083-11.865.997l.01.02c-1.837.463-3.387.658-4.927.77-3.418.144-5.964.134-7.904.031-.811.39-4.055 2.126-4.322 2.29-1.519.718-6.148 2.648-8.89 2.033-2.77.472-6.353-.175-7.893-.965-1.776-.914-2.998-5.38-1.478-6.099 3.48-1.519 8.992-2.186 12.503-1.673 3.12-.595 6.898-.144 8.335-.01.718-.34 2.433-2.064 4.63-3.542.554-1.222 2.022-3.08 2.607-3.778.236-.585 1.92-2.023 1.026-2.484-.318-.165-.482-.247-1.098-.062q-.177.009-.48.04l-.085.052c-.352.106-2.728.476-5.135.832l-.602.088c-1.598.234-3.137.452-4.025.569l-.04-.02c-1.274.213-2.735.38-4.173.451-.892.254-1.731.475-2.923.216-3.756.78-8.217 1.248-12.5 1.457-.843-.03-1.643.257-2.588.37-1.2.082-3.623-.267-4.352-.647-2.21-1.142-.906-2.83.657-4.244l.242-.215.244-.21c.446-.381.887-.733 1.249-1.039.934-.821 1.96-1.704 3.48-2.423.318-.636.554-1.221 1.283-1.652.831-.575 5.204-3.44 4.475-3.717-.246-.128-1.22-.03-2.495.175l-.462.076a95 95 0 0 0-2.278.42l-.64.127c-2.236.445-4.394.914-5.026.999-3.141.79-7.217 1.499-10.142 1.796-2.094.524-2.392.976-4.968 1.15-2.546-.01-6.396.206-8.49-.872-2.494-1.294-1.478-2.875.36-4.138.893-.441 1.118-.934 2.022-1.468 2.535-1.499 4.568-2.166 7.575-3.316.852-.862 1.95-1.601 3.203-2.166 1.797-.883 2.823-1.755 4.691-2.597.369-.163.978-.376 1.418-.524l.24-.08.256-.083.037-.011c1.19-1.602 2.545-2.403 4.609-3.347 2.237-1.058 6.61-1.407 9.105-.113m4.815 37.194c-.81.39-1.92 1.222-1.899 1.838.246.123.38.4.626.524 1.53.79 4.907.225 6.519-.545.331-.151.866-.349 1.433-.552l.571-.203c.474-.169.93-.332 1.27-.466.185-.103.216-.39-.349-.688-1.13-.585-7-.503-8.17.092m-6.97-54.082c1.53.79 1.725 2.197.195 3.018-1.088.647-3.254 1.027-4.753 1.56l.01-.02c-.83.678-2.33 1.109-3.5 1.715-1.334.523-2.556.893-3.634 1.437-1.95.8-2.864 2.135-4.906 2.987l-.04.02c-.47.235-4.98 2.465-6.448 2.66-.73.797-2.994 1.992-5.409 3.142l-.606.287-.718.334c-1.91.883-3.758 1.688-4.866 2.202-1.355.8-3.511 1.806-5.687 1.58-.647 1.274-1.53 1.623-5.133 2.68-6.847 2.084-15.88 2.238-21.936-.79-2.176-1.13-3.49-2.31-4.804-3.594-1.622-1.54-3.408-2.371-4.158-4.065-.77-1.602.432-3.295 2.7-4.64.637-.38 1.016-.78 1.56-1.099 1.335-.616 4.27-1.006 5.882-.174 1.93 1.006 1.971 3.038-.072 3.89-.81.39-1.745.4-2.37.688-.268.165-.73.432-.904.534-2.053.945 1.447 4.774 3.141 5.647 2.423 1.252 6.405 2.114 9.66 1.889 3.428-.237 6.425-.493 8.992-1.479 1.874-.701 3.884-1.582 5.879-2.493l.92-.423.913-.423c3.944-1.833 7.647-3.607 9.913-4.135 1.735-1.92 5.779-4.044 9.177-5.605l14.217-6.622c1.704-.831 4.445-1.827 6.785-.708"/></svg>