<svg xmlns="http://www.w3.org/2000/svg" viewBox="0 0 800 800" class="img-icon"><path fill="#a0613f" fill-rule="evenodd" d="M102.19 304.382c33.136 1.83 75.658 9.652 119.72 22.02 44.064 12.368 84.437 27.82 113.69 43.491 19.97 10.707 42.83 25.895 42.271 39.098.254.672.475 1.368.655 2.091l.01-.029c2.852 11.493-3.619 24.06-11.336 36.497l-.612.982-.616.98-.611.969-.615.967-.615.966-.617.965-.617.963v.02c-16.11 25.179-37.472 36.757-46.587 41.699-35.716 19.371-72.924 19.742-99.877 16.417a52.4 52.4 0 0 0-9.804 2.386c-.434.151-.98.342-1.62.58l-.44.165c-4.532 1.726-13.028 5.614-19.851 13.925l-.115.14-.226.281c-.298.374-.584.748-.86 1.132l-.205.29-.176.256-.174.26c-1.01 1.531-1.927 3.302-2.96 5.855l-.178.445c-1.766 4.456-3.9 11.22-7.41 22.878-3.304 10.983-5.14 17.082-6.793 22.89l-.197.697-.392 1.39-.096.337c-11.428 40.977-17.17 61.543-17.903 63.72l-.5 1.503c-3.21 9.526-6.852 20.315-5.002 32.558.947 6.253 3.269 12.72 3.443 13.214l.007.02q.686 1.868 1.478 3.69c44.843 16.463 74.267 38.46 69.892 54.039-5.193 18.466-55.578 19.92-114.71 3.323C42.506 741.855.245 714.392 5.43 695.927c4.54-16.173 43.787-19.29 93.197-8.658l.416.09.678-.492q.675-.497 1.34-1.01l.734-.574c.23-.193 5.694-4.566 9.837-9.507 7.96-9.479 10.465-20.595 12.68-30.4l.348-1.542c.51-2.235 6.32-22.78 17.893-63.72l.096-.337.39-1.385.193-.694.194-.698c1.55-5.6 3.135-11.688 5.91-22.306l.02-.086c4.966-19.053 6.348-25.29 6.19-30.304l-.015-.36-.009-.179-.022-.356q-.03-.443-.076-.883l-.038-.354a35 35 0 0 0-.114-.893c-1.773-12.61-8.769-21.134-11.072-23.937a52.8 52.8 0 0 0-11.078-10.105 449 449 0 0 1-7.229-3.805l-3.958-2.116a177 177 0 0 1-7.343-3.978c-23.89-13.133-47.396-28.437-63.634-57.259-4.471-7.937-18.067-32.076-15.88-65.078 1.08-16.327 2.1-31.749 11.524-40.408l-.178.08c7.484-10.54 33.871-11.5 55.766-10.29m43.772 189.012.306.348q.482.555.948 1.124c2.467 3.015 9.992 12.176 11.92 25.873.113.803.201 1.574.258 2.352l.026.39.018.336.008.17.011.34c.071 2.504-.201 5.259-1.014 9.412l-.114.575c-.534 2.65-1.277 5.854-2.278 9.885l-.371 1.488a1147 1147 0 0 1-2.547 9.913l-.02.086c-2.833 10.865-4.433 16.994-6.022 22.72l-.195.699-.195.697-.196.696-.098.349-.096.337c-11.553 40.87-17.354 61.379-17.845 63.527l-.347 1.54c-2.313 10.24-4.943 21.838-13.5 32.048-3.65 4.354-8.125 8.185-9.788 9.556l-.117.096-.491.405a75 75 0 0 1-16.882 10.076l.01-.01-1.542-3.593a71 71 0 0 0 10.13-5.37c-45.91-9.436-83.972-6.928-87.936 7.18-4.625 16.453 38.59 43.588 94.36 59.241s106.79 14.979 111.415-1.483c3.79-13.5-24.589-34.164-65.683-49.803a71 71 0 0 0 5.567 9.288l-3.189 2.264.01-.01a74.5 74.5 0 0 1-9.164-17.387l-.212-.606c-.664-1.908-2.563-7.639-3.43-13.39-1.994-13.167 1.802-24.447 5.155-34.388l.501-1.493c.694-2.08 6.427-22.617 17.845-63.527l.097-.337.196-.7c.23-.817.46-1.632.696-2.457l.203-.71c1.537-5.35 3.324-11.287 6.305-21.187 4.572-15.19 6.892-22.321 9.132-26.887l.206-.414a28 28 0 0 1 2.236-3.71l.229-.316a37 37 0 0 1 1.214-1.559c8.778-10.692 19.965-14.603 23.646-15.884l.676-.232c-8.319-1.407-15.206-3.008-20.169-4.16a216 216 0 0 1-9.578-2.457 222 222 0 0 1-30.305-10.94m62.748 263.238c-3.758 2.119-7.689 4.016-11.842 5.288-4.172 1.252-8.547 1.869-12.844 2.254-13.978 1.296-28.661.92-41.806-4.46l-.716-.299c12.633 2.245 25.294 2.601 38.051 1.87 6.995-.328 14.135-.53 20.919-2.351 2.746-.674 5.463-1.551 8.238-2.302M91.494 706.918c8.97 5.568 18.558 9.45 28.656 12.291 3.209.944 6.793 2.052 10.03 2.707 4.54 1.011 9.174.857 13.837.925a51 51 0 0 1-6.966 1.493c-4.76.683-9.713 0-14.328-1.147-11.271-2.63-22.71-7.239-30.791-15.79l-.438-.47zm63.71-152.474c-5.367 24.37-12.112 48.75-20.07 72.398 5.357-24.37 12.13-48.74 20.07-72.398M699.556 39.869c.734.463 1.444.966 2.135 1.524l-.01-.01c10.822 8.756 13.723 25.075 15.322 42.194l.112 1.224.108 1.227q.16 1.84.307 3.686l.098 1.23q.098 1.229.193 2.456v.029c2.756 35.265-9.144 61.427-14.232 72.6-19.937 43.83-54.89 70.732-82.734 86.805a61.6 61.6 0 0 0-7.435 9.126c-2.38 3.574-9.616 14.43-10.223 29.486q-.013.322-.021.64l-.009.423-.003.4v.199l.004.398c.097 6.302 2.117 12.73 10.917 36.49 4.588 12.386 7.19 19.406 9.715 25.918l.285.735.572 1.464.287.732.155.385c14.57 36.999 23.408 59.443 26.9 68.506l.375.974c.703 1.834 1.13 2.976 1.284 3.439l.598 1.782c3.767 11.28 8.026 24.071 18.51 34.301 5.365 5.241 12.186 9.699 12.68 10.016l.019.012a83 83 0 0 0 4.042 2.44c54.077-16.424 97.555-16.654 104.54 1.182 8.277 21.124-38.252 58.43-105.932 84.93s-127.18 30.7-135.456 9.565c-7.26-18.51 27.572-49.434 81.813-74.632l.48-.221q.46-1.48.866-2.976l.246-.927c.087-.347 2.12-8.38 2.505-15.99.742-14.622-4.808-26.904-9.713-37.75l-.77-1.705c-1.118-2.475-10.291-26.017-28.57-72.918l-.154-.386q-.355-.91-.713-1.82l-.432-1.095c-2.558-6.466-5.414-13.37-10.437-25.54l-.038-.096c-9.33-22.568-12.345-29.038-16.32-33.682l-.277-.317a35 35 0 0 0-1.293-1.385l-.302-.304c-10.667-10.644-23.356-13.698-27.529-14.71a62.3 62.3 0 0 0-17.383-1.657 530 530 0 0 1-9.847 1.62q-2.826.444-5.663.886c-2.763.479-5.743.94-8.955 1.355-32.06 4.667-65.296 7.072-101.345-8.628-9.876-4.306-39.949-17.397-61.426-50.119l-.353-.537-.704-1.074c-10.076-15.371-19.252-29.935-17-44.135-.951-15.341 23.542-35.321 45.287-49.934 32.597-21.895 78.317-44.83 128.75-64.577 50.432-19.747 99.573-33.945 138.375-40.004 26.484-4.129 58.884-6.087 67.8 6.75M609.992 258.78c-8.825 4.584-16.44 7.97-21.932 10.413a255 255 0 0 1-10.792 4.508c-13.439 5.26-25.756 8.786-36.321 11.25q1.086.223 2.163.483c4.48 1.079 18.125 4.363 29.716 15.922 5.656 5.645 8.17 10.51 19.204 37.192l.038.096c5.8 14.035 8.71 21.076 11.62 28.542l.155.385c18.25 46.824 27.413 70.327 28.473 72.697l.77 1.705c5.117 11.318 10.917 24.14 10.118 39.888-.34 6.732-1.842 13.555-2.43 16.019l-.037.154-.064.262-.055.22-.064.26a88.2 88.2 0 0 1-8.75 21.548l-.009-.01-4.018-2.282a84 84 0 0 0 5.741-12.309c-50.098 23.836-84.257 53.347-77.93 69.497 7.38 18.832 67.535 13.63 131.36-11.357 63.826-24.986 111.522-62.014 104.141-80.846-6.046-15.439-47.59-14.724-97.545-.184a84 84 0 0 0 11.867 4.789l-1.396 4.405-.95-.307a88.4 88.4 0 0 1-20.096-9.57l-.635-.414c-1.995-1.33-7.873-5.384-12.796-10.191-11.284-11.01-15.735-24.36-19.667-36.151l-.587-1.773c-.829-2.466-10.07-25.94-28.483-72.697l-.154-.385-.29-.735-.287-.735-.287-.736-.144-.37-.288-.74-.288-.746c-2.41-6.239-4.978-13.165-9.314-24.874-8.927-24.099-11.069-30.931-11.201-37.772l-.006-.461v-.463q.005-.808.04-1.645c.655-16.357 8.43-28.022 10.994-31.865zM787.9 488.74c-2.033 4.681-4.384 9.276-7.41 13.437-3.044 4.152-6.735 7.86-10.522 11.28-12.292 11.209-26.449 21.327-42.727 25.616l-.761.195 1.182-.606c13.05-6.776 24.859-15.243 36.034-24.733 6.369-5.298 12.97-10.576 18.076-17.136 2.11-2.591 4.047-5.366 6.128-8.053m-85.197 14.227a59.6 59.6 0 0 1-5.512 6.377c-3.998 4.036-9.173 6.916-14.347 9.141-12.748 5.655-27.124 9.498-41.086 6.907 12.44-1.137 24.272-4.315 35.825-8.833 3.7-1.397 7.872-2.91 11.399-4.595 5.01-2.273 9.27-5.731 13.721-8.997m-545.446-1.791c4.21 1.29 8.315 2.697 12.497 3.997 5.367 1.667 10.763 3.083 16.168 4.682-10.069 0-20.283-3.112-28.665-8.68m16.235-.395.37.099a216 216 0 0 0 12.58 3.33l.796.185c-4.416-1.13-8.974-2.343-13.746-3.614m26.373-17.262c-3.219 5.683 2.784 12.503 8.17 7.706h-.009l.067-.077c2.477-2.803 1.725-8.332-1.358-10.48-2.438-1.455-5.348.24-6.87 2.851m-3.093-17.078c-.954 1.791 2.505 2.976 3.546 1.714l.057-.067c.665-.761.174-2.013-.645-2.476-.935-.491-2.342-.01-2.958.829m16.13-3.333c-.824.464-.645 1.247-.358 2.029l.099.26c.133.345.268.683.326.986.24 1.512 1.387 2.64 2.93 1.897h-.01l.086-.048c1.051-.547.783-1.58.434-2.528l-.097-.256c-.173-.52-.26-1.088-.578-1.54-.54-.771-2.004-1.186-2.832-.8m13.085-12.041c-1.513 2.052 1.156 5.53 3.199 3.208l.067-.077c1.966-2.61-.675-6.695-3.266-3.131m-26.912-8.053c-.877 3.766-2.043 6.28 1.984 8.63l.01.01.068.03c1.204.539 2.216.163 3.526-.79 2.091-1.513 3.42-4.691 2.93-7.36-.367-2.273-1.465-4.257-3.97-4.2-2.747-.27-4.105 1.022-4.548 3.68m-131.688-4.277a121 121 0 0 0 6.009 6.371c-1.653-1.723-3.332-3.474-5.03-5.306zM44.386 321.525l-.018.03c-3.315 5.511-4.772 12.671-5.64 20.825.642.133 1.412.71 2.21 1.322l.244.186c.245.187.492.373.738.546a163.6 163.6 0 0 0 21.988 13.66c10.262 5.548 25.505 10.788 31.556 12.368 25.958 6.694 43.11 19.4 70.946 31.084 62.303 28.233 140.871 34.388 156.924 29.774 4.5-1.02 10.965-1.897 15.86-1.782 4.933-.144 17.43 2.293 23.501 5.298 2.26 1.116 5.384 2.466 6.177 4.543l.042.123c4.966-8.834 8.487-17.536 7.472-25.466-6.64 11.346-33.845 12.39-56.318 11.148-33.137-1.83-75.658-9.652-119.722-22.02s-84.435-27.819-113.689-43.49c-19.493-10.452-41.738-25.172-42.271-38.149m4.163-2.386c-1.812 6.457 6.065 15.823 22.017 26.46 5.78 1.852 23.589 8.99 40.874 11.521 1.157.17 2.346.339 3.552.507l.806.112.81.112.812.11 1.222.166.402.054.805.108.402.053.802.106.8.106c9.704 1.272 18.57 2.294 18.57 2.294 1.744.196 10.693 1.22 20.32 2.42l.999.124 1.502.19.502.062 2.004.256.999.128c4.98.643 9.78 1.296 13.498 1.868 1.692.26 3.372.549 5.06.866l.922.177c12.92 2.51 26.574 6.804 50.655 14.379 1.985.78 25.717 12.81 54.316 20.989 2.446.699 5.01 1.393 7.606 2.088l1.3.348c1.519.405 3.043.811 4.557 1.22l1.294.35c8.82 2.394 17.085 4.855 21.356 7.601.742.482 3.652 2.437 7.969 3.362 2.544.547 4.415.496 6.246.43l.686-.025q.343-.012.69-.02c5.74-.115 11.337 1.056 14.42 2.165 9.47-1.853 15.16-5.047 16.384-9.408 4.693-16.723-55.606-52.96-152.857-80.26C123.6 302.86 53.24 302.419 48.549 319.14m544.57 16.857c12.314 26.837 23.337 54.665 32.702 82.667-12.333-26.836-23.327-54.665-32.703-82.667M121.074 314.94c-12.642-2.215-25.303-2.523-38.05-1.753q-.875.044-1.752.085l-1.756.086c-5.858.295-11.757.706-17.401 2.247-2.747.684-5.454 1.57-8.23 2.331 3.75-2.138 7.67-4.046 11.824-5.327 4.162-1.262 8.537-1.897 12.834-2.292 14.232-1.368 29.186-.992 42.531 4.623m307.514-25.373.245.05q4.197.829 8.352 1.397c-2.808-.45-5.664-.913-8.597-1.447m161.725-17.569c-9.51 7.177-21.361 11.52-33.261 12.243 4.895-1.782 9.77-3.38 14.646-5.134 6.263-2.254 12.352-4.768 18.615-7.109M250.557 247.06c2.582.664 4.336 3.564 5.704 5.847.887 1.473 2.37 3.94 2.563 7.07v.01c.318 5.182-2.939 12.07-8.267 13.061-6.118 1.147-12.989-5.847-12.998-12.994 0-7.802 8.18-14.227 12.998-12.994m336.397 19.167-.718.3c-3.967 1.651-8.058 3.32-12.297 5.046l-.983.4a255 255 0 0 0 13.822-5.667zm2.424-36.636-.23.005c-3.353.366-4.885 4.045-4.46 7.59 1.011 7.668 11.543 9.825 13.21 1.455l.01-.01v-.115c.325-4.25-4.002-8.77-8.3-8.921zm-364.153-13.558c3.305.684 5.02 5.192 5.02 8.496s-1.715 7.802-5.02 8.496c-3.777.78-8.498-3.67-8.498-8.496s4.712-9.276 8.498-8.496m346.56 4.344c-1.243.203-2.225 1.657-2.206 2.89.385 2.38 4.49 1.021 4.577-.905v-.097c.086-1.204-1.272-2.042-2.37-1.888m129.979-174.66.024.19c1.586 15.419-23.23 35.7-45.24 50.49-32.596 21.894-78.316 44.83-128.749 64.576-50.432 19.747-99.573 33.946-138.375 40.004-25.85 4.03-57.34 5.993-67.12-5.854.8 7.582 4.538 15.393 9.547 23.727.67-.325 1.744-.342 2.883-.336l.322.002c.43.003.865.006 1.286-.007a193 193 0 0 0 30.496-2.784c13.654-2.08 31.778-8.005 38.62-10.827 29.272-12.185 54.536-12.417 89.157-21.24 78.982-17.772 157.55-67.987 169.411-83.794 3.517-4.17 8.99-9.613 13.702-12.994 4.557-3.66 18.095-10.268 25.967-11.761 2.94-.57 6.867-1.528 9.098-.107l.092.064c-1.619-11.873-4.505-22.589-11.121-29.35M582.433 208.614c-.694 1.59 1.455 2.196 2.399 3.044 1.31 1.252 3.199 1.493 4.124-.299l.048-.106c.646-1.377-.588-2.186-1.677-2.87-.54-.366-1.02-.848-1.647-1.04-1.06-.338-2.737.317-3.247 1.271m-25.727-15.836c-2.785 1.715-3.151 3.901-1.667 6.724 1.85 4.18 2.544 7.388 8.026 6.733l.01-.01.087-.02c1.522-.346 2.216-1.425 2.775-3.255.896-2.928-.116-6.868-2.486-9.035-1.966-1.888-4.423-2.977-6.745-1.137m-306.149-7.85a8.264 8.264 0 0 1 8.267 8.264c0 4.566-3.7 8.265-8.267 8.265a8.264 8.264 0 0 1-8.267-8.265c0-4.566 3.7-8.264 8.267-8.264m244.52-107.49v-.01c-111.3 43.578-178.045 93.33-170.548 112.47 2.889 7.373 16.962 10.6 39.542 9.286 6.59-2.332 28.7-8.31 46.975-18.321a710 710 0 0 0 5.707-3.165L418 177l1.66-.935.83-.469.825-.467q.965-.547 1.917-1.09l.758-.431c8.939-5.098 16.62-9.619 17.061-9.879l.02-.011a2549 2549 0 0 1 19.65-11.477l.849-.49c.992-.572 1.994-1.149 2.997-1.725l1.037-.595 1.038-.594 1.035-.592c5.343-3.052 10.545-5.976 14.596-8.156q.707-.381 1.418-.755l.948-.496.903-.466.444-.227.89-.45.887-.442c14.209-7.044 30.24-12.755 58.99-22.99 2.429-.673 33.416-6.231 66.254-18.908a582 582 0 0 0 8.997-3.582l1.312-.533 1.314-.533 2.49-1.01 1.243-.502 1.239-.499c10.105-4.056 19.75-7.667 25.782-8.127 1.031-.077 5.184-.308 9.915-2.504 3.478-1.619 5.319-3.372 7.467-5.067 5.34-4.208 11.469-7.096 15.17-8.243 7.602-8.491 10.69-15.555 8.736-20.54-7.496-19.13-90.285-10.345-201.594 33.224M586.2 187.905c.039 3.015 5.04 4.392 5.31.751l.009-.01v-.115c0-3.863-5.415-5.837-5.319-.626m-196.198-53.72.01.009c-13.519 6.926-25.689 15.662-37.184 25.478-6.35 5.317-12.94 10.615-18.018 17.194-2.1 2.6-4.028 5.375-6.109 8.072 2.023-4.69 4.355-9.295 7.362-13.466 3.035-4.161 6.706-7.88 10.483-11.318 12.254-11.247 26.383-21.412 42.641-25.758zM311.338 95.23c7.024-.443 12.998 6.001 12.998 12.994 0 6.994-5.974 13.447-12.998 12.995-6.552-.424-11.341-6.666-11.341-12.995s4.789-12.57 11.34-12.994m-47.04 12.994c0-4.46 3.882-8.65 8.267-8.264 4.008.356 6.812 4.402 6.812 8.264 0 3.863-2.804 7.909-6.812 8.265-4.385.395-8.268-3.805-8.268-8.265M239.63 72.7c-.433-3.602 3.527-8.794 8.499-8.496 4.827.29 8.113 5.597 7.371 10.066-.617 3.757-4.114 7.138-7.371 6.926-2.313-.154-3.999-2.061-5.849-4.17-1.513-1.725-2.467-2.804-2.65-4.326"/></svg>