<svg xmlns="http://www.w3.org/2000/svg" viewBox="0 0 800 800" class="img-sales-icon"><path fill="#a0613f" d="M420.595 133.202c9.322.14 18.955.288 27.717.14 13.86-.239 27.84.435 41.362 1.084 7.283.354 14.82.715 22.202.929 1.611.05 6.477.189 12.264 2.284l-.016.05c3.37 1.092 8.696 4.157 12.37 7.272 8.036 6.812 27.199 34.993 47.818 70.285l25.067-.329v-14.345q-1.551.153-3.099.315l-.254.017c-1.57 0-5.582-.362-8.91-3.69a12.52 12.52 0 0 1-3.691-8.907v-6.722c0-6.944 5.655-12.597 12.6-12.597h.14a876 876 0 0 0 50.667 1.487h.099c16.859 0 33.94-.501 50.765-1.479h.14c1.57 0 5.581.353 8.91 3.681a12.52 12.52 0 0 1 3.691 8.908v6.722c0 6.943-5.655 12.597-12.6 12.597l-.256-.017a478 478 0 0 0-5.038-.502l-.001 13.313 62.32-.815.051 3.9 3.65-.201a4203 4203 0 0 1 6.371 208.586c.37 65.45-.822 131.804-3.542 197.204l-.247 5.86-5.869.049-3.305.028 1.513 28.986c-121.316 6.333-243.554 9.569-365.733 9.7l-7.796.004-7.89-.003c-113.157-.124-226.237-2.908-338.618-8.353l1.198-24.74-15.057-.158-.206-3.846A3107 3107 0 0 1 25.2 429.96a3109 3109 0 0 1 9.79-213.426l4.095.327.03-6.155 101.876.48v-8.212l-5.802.001a1.907 1.907 0 0 1-1.907-1.907v-12.086c0-1.053.853-1.907 1.907-1.907h50.157c1.053 0 1.907.854 1.907 1.907v12.086a1.907 1.907 0 0 1-1.907 1.907h-7.086v8.386l134.171.632-.928-.357c.332-.852 6.05-15.65 12.649-31.459l.552-1.319.555-1.322.559-1.324q.56-1.325 1.123-2.645l.563-1.318a599 599 0 0 1 4.483-10.212c1.406-3.114 4.324-9.59 10.751-15.58.568-.526 5.623-5.127 12.61-8.209 13.217-5.834 38.485-5.448 65.248-5.045M42.718 223.047a3103 3103 0 0 0-9.291 207.002c-.357 31.323-.23 62.848.376 94.374a109.7 109.7 0 0 1 28.861-.51 109.7 109.7 0 0 1-28.837 1.707q.273 13.981.672 27.955c5.312-.474 10.72-.589 15.984-.638 7.085.033 14.146.255 21.182 1.233-7.036.977-14.105 1.2-21.182 1.232-5.258-.05-10.65-.163-15.947-.635q.207 7.251.451 14.496c6.037-1.358 12.914-.925 18.397 1.325-5.455 2.237-12.29 2.678-18.305 1.345.618 17.936 1.391 35.841 2.318 53.677l318.771 3.355c-17.367-8.885-33.448-20.366-47.732-34.235-37.375-36.304-57.958-84.605-57.958-136.003 0-40.795 12.966-79.644 37.004-112.084a580 580 0 0 1 8.156-65.12 579 579 0 0 1 13.544-57.22zm713.75-1.838-170.741 2.235 8.783 34.314c1.11 4.347 1.882 7.24 2.622 10.042l.247.929.123.466.125.468a850 850 0 0 1 2.892 11.212l.203.807.21.84.33 1.319c.601 2.414 1.29 5.2 2.092 8.47 4.664 19.01 7.976 39.7 9.865 61.603 20.748 30.905 31.875 67.021 31.875 104.813 0 51.398-20.582 99.707-57.957 136.003A197.8 197.8 0 0 1 546 625.436c36.337-2.86 72.983-5.1 109.253-6.671a3114 3114 0 0 1 104.054-2.761 4195 4195 0 0 0 3.297-190.77 4189 4189 0 0 0-6.137-204.025m-308.682 78.268c-90.664 0-164.428 71.432-164.428 159.241S357.122 617.96 447.786 617.96c90.665 0 164.43-71.432 164.43-159.242s-73.765-159.24-164.43-159.24M308.033 501.703c9.535 24.66 23.87 47.175 43.837 64.414 7.373 6.443 15.47 12.063 23.763 17.314 13.413 8.727 27.453 16.106 42.263 22.53l1.581.68-1.076-.225c-16.01-3.416-31.493-9.859-45.735-18.03-20.887-11.356-39.266-27.971-50.922-48.794-6.715-11.808-11.45-24.684-13.71-37.89m141.15-151.797c65.15 0 118.16 50.972 118.16 113.628s-53.01 113.627-118.16 113.627-118.159-50.971-118.159-113.627 53.01-113.628 118.16-113.628M125.424 385.2a487.2 487.2 0 0 0-3.461 181.116c-16.999-58.753-15.724-123.045 3.46-181.116m323.76-22.145c-57.9 0-105.007 45.071-105.007 100.48 0 55.408 47.108 100.48 105.008 100.48s105.008-45.072 105.008-100.48-47.108-100.48-105.008-100.48m.642 43.526c31.465 0 56.971 23.962 56.971 53.527s-25.506 53.527-56.971 53.527-56.971-23.961-56.971-53.527c0-29.565 25.506-53.527 56.97-53.527m286.87-49.623c7.02 25.456 9.684 51.924 9.799 78.277-.097 25.864-2.664 51.848-9.412 76.862l-.386 1.415zM68.46 505.918c-10.817 1.71-21.873 1.693-32.69 0 10.817-1.693 21.881-1.71 32.69 0m83.908-56.518c-7.085 18.35-7.554 37.84-1.397 56.518-9.544-17.223-8.968-39.788 1.397-56.518m-89.694 25.12c8.877.058 18.083.238 26.903 1.233-8.812.994-18.026 1.175-26.903 1.232-8.878-.065-18.084-.246-26.904-1.232 8.812-.986 18.026-1.167 26.904-1.233m381.398-55.902c12.132 1.62 23.73 5.407 32.871 13.485 9.132 7.823 14.55 19.286 16.982 30.987 2.137-12.983-3.247-26.698-13.184-35.31-9.724-8.627-24.1-12.26-36.669-9.162m-391.443 29.55c6.37.032 12.724.254 19.045 1.232-6.32.978-12.675 1.2-19.045 1.233-6.296-.066-12.806-.247-19.045-1.233 6.23-.986 12.749-1.167 19.045-1.232m15.831-23.765c10.785.058 21.972.239 32.69 1.233-10.718.994-21.913 1.175-32.69 1.233-10.784-.066-21.971-.247-32.69-1.233 10.719-.986 21.914-1.167 32.69-1.233m-6.37-19.055c8.688.057 17.689.238 26.312 1.232-8.623.995-17.632 1.175-26.312 1.233-8.688-.066-17.689-.247-26.32-1.233 8.623-.986 17.632-1.167 26.32-1.232m313.634-69.764c-5.893 4.166-11.49 8.422-16.653 13.114-15.815 14.06-26.854 32.047-34.465 51.728 1.808-29.056 23.188-56.42 51.118-64.842m-304.05 49.615c-12.116 1.71-24.454 1.693-36.57 0 12.116-1.693 24.454-1.71 36.57 0m0-29.491c11.837.057 24.125.238 35.904 1.232-11.77.994-24.075 1.175-35.904 1.233-11.836-.066-24.125-.247-35.904-1.233 11.771-.986 24.076-1.167 35.904-1.232m442.579-26.649c11.902 6.55 22.678 15.038 31.523 25.112-21.043-16.024-45.045-27.7-71.085-31.94-9.65-1.627-19.498-2.178-29.312-2.318-16.571-.427-32.953.723-49.524 3.172 15.732-5.727 32.673-8.455 49.458-8.948 23.747-1.258 48.103 3.278 68.94 14.922M321.826 225.013a570 570 0 0 0-14.064 58.745 565 565 0 0 0-6.526 46.329 199 199 0 0 1 7.2-7.363c34.412-33.43 79.28-52.976 127.405-55.755a261 261 0 0 1-30.041-3.894 444.7 444.7 0 0 0 92.464.896 261 261 0 0 1-32.576 3.43c45.863 3.99 88.453 23.284 121.449 55.323a198 198 0 0 1 11.63 12.301c-1.842-13.936-4.313-27.243-7.389-39.78a2370 2370 0 0 0-2.077-8.399l-.432-1.728c-1.458-5.818-2.37-9.3-3.228-12.543l-.123-.462-.183-.69-.122-.46c-.748-2.826-1.529-5.752-2.647-10.14l-8.556-33.41a13 13 0 0 0-1.16-.066zm-58.771 96.51c-58.057-2.735-116.014.174-173.487 8.818 56.199-15.333 116.03-18.398 173.487-8.817m463.909 1.948c-18.421-2.646-36.776-4.371-55.32-4.05-17.953.198-35.668 2.329-53.413 5.333l-1.738.297 1.013-.39c34.682-13.198 74.515-13.71 109.458-1.19M69.742 239.393c.912 7.823 1.57 19.023 2.21 26.952.24 3.508.566 7.62.877 11.802l.168 2.284c.33 4.568.621 9.101.74 12.9-2.902-8.645-4.349-17.684-5.064-26.74-.625-9.07-.518-18.217 1.069-27.198m382.886.518c18.001.328 36.685.83 54.588 2.407-17.928 1.077-36.644 1.052-54.637.88-18.002-.337-36.685-.839-54.588-2.408 17.927-1.068 36.644-1.052 54.637-.88m-92.308-90.398c-5.187 2.285-9.149 5.925-9.19 5.958-4.603 4.289-6.749 9.063-7.908 11.627-2.348 5.207-4.812 10.937-7.18 16.587l-.545 1.303-.39.935-.387.932a1305 1305 0 0 0-6.136 15.058l-.394.984c-1.62 4.053-2.96 7.461-3.876 9.8l245.534 2.286c-19.932-33.538-35.941-56.05-41.343-60.63-3.478-2.946-7.3-4.61-8.328-5.03l-.18-.073-.082-.033a26.3 26.3 0 0 0-8.392-1.545c-7.513-.213-15.108-.583-22.449-.936-13.324-.641-27.1-1.307-40.556-1.077-8.968.156-18.7 0-28.12-.14q-2.574-.04-5.152-.076l-1.472-.02-1.471-.02-1.469-.018-.733-.008-1.464-.016c-20.227-.2-39.31.177-48.317 4.152m347.582 24.413c-8.166.477-16.39.84-24.617 1.088a17.18 17.18 0 0 0 1.338 15.963c-3.96-4.195-4.585-10.953-1.858-15.949q-5.47.164-10.937.258a17.18 17.18 0 0 0 1.37 15.888c-3.943-4.176-4.58-10.893-1.894-15.882q-2.393.042-4.785.068a17.18 17.18 0 0 0 1.402 15.814c-3.924-4.156-4.573-10.829-1.933-15.81q-4.537.05-9.057.05h-.099l-2.832-.006a17.19 17.19 0 0 0 1.5 15.57c-3.861-4.091-4.551-10.618-2.056-15.572a797 797 0 0 1-4.706-.03 17.18 17.18 0 0 0 1.486 15.601c-3.872-4.1-4.556-10.65-2.038-15.609q-2.596-.024-5.198-.065a17.18 17.18 0 0 0 1.457 15.674c-3.891-4.121-4.562-10.717-1.998-15.684a777 777 0 0 1-4.704-.09 17.18 17.18 0 0 0 1.417 15.774c-3.918-4.15-4.571-10.808-1.945-15.787a865 865 0 0 1-13.578-.411 17.18 17.18 0 0 0 1.237 16.198c-4.032-4.27-4.607-11.197-1.708-16.217q-2.36-.09-4.719-.194a17.18 17.18 0 0 0 1.141 16.411c-4.09-4.332-4.622-11.397-1.58-16.432a838 838 0 0 1-12.048-.619c-4.2.033-7.595 3.46-7.595 7.667v6.722c0 2.046.797 3.969 2.244 5.415 1.989 1.988 4.43 2.227 5.302 2.243a492 492 0 0 1 51.02-2.662c16.974 0 34.145.896 51.028 2.662a7.67 7.67 0 0 0 7.546-7.666v-6.722a7.6 7.6 0 0 0-2.244-5.415c-2.03-2.03-4.537-2.235-5.36-2.244m-227.664 5.711c-9.025-.73-17.952-1.397-26.985-1.347-9.034-.058-17.96.616-26.986 1.347 17.442-5.119 36.537-5.135 53.971 0"/></svg>