<svg xmlns="http://www.w3.org/2000/svg" viewBox="0 0 800 800" class="img-icon"><path fill="#a0613f" fill-rule="evenodd" d="M406.652 48c71.447 0 138.655 6.18 189.229 17.407 34.53 7.665 75.288 20.84 80.04 40.91a29 29 0 0 1 1.881 2.881l-.008-.015c9.127 16.049 4.734 37.643-1.601 59.563l-.399 1.37q-.2.687-.403 1.372l-.462 1.558-.233.779-.468 1.558-.47 1.557-.709 2.334-.473 1.554v.03c-13.588 44.633-40.803 71.041-52.426 82.322-45.556 44.226-101.397 60.468-143.327 66.828a81.7 81.7 0 0 0-13.583 7.662c-4.636 3.243-18.753 13.1-26.74 31.295-.42.955-.8 1.888-1.148 2.841l-.186.523-.08.229-.153.462c-2.454 7.506-3.024 17.28-3.606 48.524-.338 18.123-.521 28.081-.542 37.624l-.001.867v2.715c.053 30.775.095 54.444.107 71.34v1.224l.001.604v1.188l.001.585v1.718l.001.561v6.155l-.001 1.662c-.007 10.836-.04 16.858-.109 18.27l-.122 2.47c-.804 15.671-1.722 33.43 6.236 51.035 2.74 6.072 6.457 12.02 8.734 15.454l.271.408c.968 1.448 1.625 2.37 1.753 2.55l.014.02a110 110 0 0 0 3.759 4.898c74.33 5.834 127.841 26.46 127.841 51.726 0 29.934-75.111 53.382-170.995 53.382-95.885 0-170.996-23.448-170.996-53.382 0-26.227 57.666-47.455 136.422-52.322l.689-.041.884-1.117q.876-1.122 1.722-2.267l.636-.87c.079-.113.692-.972 1.624-2.362l.414-.62c2.276-3.437 5.994-9.385 8.734-15.457 7.958-17.605 7.04-35.364 6.236-51.034l-.122-2.47c-.067-1.351-.1-6.941-.11-16.948l-.001-1.05-.001-1.636v-2.652l-.001-2.821v-2.99l.001-.585.001-1.792c.01-16.986.052-41.143.11-72.833v-.543l.002-.863v-1.723l-.001-.864c-.021-9.37-.209-19.275-.536-37.069v-.137c-.688-37.024-1.37-43.9-5.18-52.58-7.987-18.201-22.104-28.06-26.74-31.294a82.3 82.3 0 0 0-20.581-10.404c-4.88-.984-9.18-1.932-12.863-2.743q-1.431-.315-2.864-.632l-2.868-.634q-1.386-.307-2.774-.616a278 278 0 0 1-9.14-2.068c-42.079-9.712-84.596-22.628-121.727-59.65-10.07-10.034-40.697-40.571-51.34-91.093l-.785-3.738-.31-1.489q-.216-1.032-.427-2.062l-.28-1.37c-4.348-21.434-7.134-41.355 1.688-56.297 6.302-19.26 45.934-31.995 79.633-39.475C268.006 54.179 335.206 48 406.652 48m-43.508 283.052.317.205a86 86 0 0 1 2.097 1.419c4.989 3.48 20.16 14.08 28.837 33.85 4.231 9.65 4.981 16.832 5.685 54.918v.138c.329 17.554.516 27.442.542 36.736l.002.87.001.867v.867q0 .65-.002 1.3v.544c-.052 30.39-.094 53.841-.106 70.659v1.249l-.002 1.827v1.77l-.001.579v9.054c.008 10.628.04 16.518.11 17.855l.122 2.463c.841 16.359 1.798 34.905-6.764 53.856-3.741 8.275-9.013 16.091-10.81 18.676v.016l-.582.803a116.5 116.5 0 0 1-21.118 22.262l-3.84-4.749a111 111 0 0 0 12.977-12.36c-73.004 5.192-129.16 25.019-129.16 47.892 0 26.683 76.396 49.222 166.833 49.222s166.834-22.539 166.834-49.222c0-21.878-51.377-40.966-119.733-47.13a111 111 0 0 0 12.287 11.606l-3.84 4.741a117 117 0 0 1-21.118-22.27l-.581-.818c-1.806-2.585-7.077-10.402-10.811-18.676-8.562-18.952-7.605-37.498-6.764-53.857l.123-2.462c.066-1.35.098-7.337.105-18.155l.001-1.632v-9.468l-.001-.604v-1.224c-.011-16.898-.051-40.758-.105-71.91v-.544l-.002-1.307v-.87c.006-9.866.196-19.893.545-38.601.711-38.086 1.454-45.268 5.685-54.92 8.676-19.77 23.848-30.369 28.837-33.849q.414-.288.83-.573c-13.061 1.391-24.058 1.889-31.986 2.248-5.294.245-10.443.352-15.432.352-19.033 0-35.853-1.59-50.012-3.643m205.292 369.065c-4.751 4.78-9.854 9.284-15.562 12.948-5.739 3.64-12.05 6.416-18.355 8.802-20.553 7.884-42.885 13.513-65.006 10.896l-.91-.112c19.94-1.95 39.114-6.76 57.974-13.239 10.375-3.441 21.025-6.753 30.451-12.359 3.841-2.172 7.552-4.642 11.408-6.936m-197.162-25.261c15.83 4.589 31.89 6.37 48.263 6.37 5.218.07 11.071.222 16.213-.16 5.434-.293 10.675-1.596 15.922-3.02l1.75-.478q1.749-.482 3.506-.953a79 79 0 0 1-9.84 5.185c-6.855 3.036-14.598 4.092-22.02 4.329-18.385.818-37.888-1.384-53.794-11.273m31.392-256.012c2.22 38.89 2.364 78.368.398 117.265-2.234-38.89-2.349-78.368-.398-117.265m-19.403-80.914c6.87.16 13.634.543 20.467.734 8.776.237 17.475.084 26.281.222-14.885 4.165-31.226 3.888-45.986-.707l-.762-.241Zm46.82-7.808-.64.015c-6.398.146-12.995.24-19.865.332l-2.002.026 1.666.024c6.15.072 12.542-.021 19.163-.321zm9.768-36.703c-2.449 9.904 9.457 17.621 15.532 8.138l.069-.146c2.532-5.246-.934-13.246-6.473-15.173-4.293-1.162-7.95 2.623-9.128 7.181m-218.285-11.567.265.174c3.96 2.578 7.96 4.968 11.997 7.19l-.03-.018c-3.992-2.348-8.064-4.743-12.232-7.346m206.433-12.799c-.673 3.098 5.02 3.419 6.052 1.086l.061-.122c.681-1.43-.589-3.113-2.012-3.457-1.622-.352-3.535.972-4.1 2.493m22.839-11.8c-1.622 1.614.727 3.388 1.484 4.887 1.003 2.172 3.206 3.372 5.203 1.613l.1-.099c1.46-1.384.336-2.967-.674-4.329-.474-.703-.841-1.53-1.515-2.072-1.132-.926-3.512-.933-4.598 0m-23.994-31.823c-4.239.757-5.738 3.266-5.28 7.45.268 6.026-.42 10.293 6.626 12.129l.123.023c2.035.305 3.412-.689 4.973-2.67 2.517-3.158 3.168-8.489 1.3-12.29-1.506-3.265-4.008-5.79-7.742-4.642m38.577 8.191c-1.408 3.717 4.07 7.816 6.16 3.472l.068-.145c1.86-4.75-3.833-9.774-6.228-3.327m210.397-119.08-.065.254c-5.468 19.705-45.717 32.677-79.872 40.252-50.582 11.227-117.782 17.406-189.229 17.406-71.446 0-138.654-6.179-189.228-17.406-33.714-7.477-73.366-20.22-79.643-39.494-2.679 9.695-1.846 21.095.298 33.75.923-.074 2.163.368 3.477.887l.336.134.339.135c.509.204 1.023.408 1.528.588a255 255 0 0 0 38.806 11.25c17.774 4.015 42.885 5.453 52.656 5.277 41.828-.887 72.976 10.967 119.748 16.787 105.563 16.152 226.245-7.74 248.425-21.452 6.336-3.442 15.678-7.487 23.092-9.376 7.36-2.31 27.177-3.908 37.56-1.958 3.898.715 9.22 1.438 11.254 4.29l.05.076.171-.708c3.605-15.102 5.097-29.383.297-40.692M406.652 54.103c-157.698 0-263.628 29.024-263.628 56.128 0 10.458 15.77 21.201 44.2 30.453 9.366.327 39.253 3.576 66.398.077a983 983 0 0 0 9.777-1.317l1.245-.174.51-.072 1.022-.144 2.039-.29 1.015-.146 1.012-.146a2080 2080 0 0 0 28.514-4.334c2.686-.432 16.376-2.636 31.217-4.88l1.05-.157 1.052-.159.527-.079 1.584-.237 1.585-.236 1.56-.231c8.575-1.267 16.996-2.452 23.407-3.23 23.405-2.837 46.152-2.133 91.638-.718 3.313.344 44.048 8.412 90.49 8.634q.714.004 1.435.005h1.45c3.637-.004 7.392-.045 11.172-.092l1.513-.019q2.273-.029 4.541-.055l1.51-.017c15.084-.156 29.574-.048 37.553 2.396 1.309.398 6.511 2.11 13.39 1.683 3.762-.234 6.44-1 8.99-1.809l.725-.232.757-.242q.567-.181 1.142-.356c8.586-2.6 17.497-3.203 22.596-2.835 13.441-6.779 20.64-13.975 20.64-21.041 0-27.104-105.93-56.128-263.628-56.128M249.353 73.198l.91.109c-19.932 2.003-39.09 6.875-57.927 13.414-10.36 3.472-21.003 6.822-30.414 12.458-3.833 2.18-7.544 4.666-11.385 6.975 4.737-4.795 9.825-9.315 15.525-12.993 5.73-3.656 12.027-6.455 18.324-8.857 20.53-7.952 42.84-13.648 64.967-11.106"/></svg>