<svg xmlns="http://www.w3.org/2000/svg" viewBox="0 0 203 126"><g fill="none"><path fill="#ddcabc" d="M51.008 13.258q.73 0 1.289.486.559.487.924 1.24.364.754.487 1.63a4.8 4.8 0 0 1-.025 1.605 18.9 18.9 0 0 1-2.626 7.37 28.8 28.8 0 0 1-4.962 6.103 14.6 14.6 0 0 1-3.477 2.31q-1.97.95-4.013.95-1.119 0-2.286-.39-1.654-.778-2.238-2.164-.583-1.386-.56-3.016.026-1.63.414-3.332.39-1.702.73-3.064a132 132 0 0 0-1.848 3.113 40 40 0 0 1-1.97 3.089 25 25 0 0 1-2.286 2.796 12.9 12.9 0 0 1-2.797 2.238 5.66 5.66 0 0 1-2.724.68q-1.119 0-2.092-.51-.972-.51-1.361-1.678a4.8 4.8 0 0 1-.365-2.165q.072-1.095.365-2.188.29-1.094.73-2.165.436-1.07.777-2.091a25 25 0 0 1 .657-1.824q.364-.9.705-1.8t.608-1.824a8.3 8.3 0 0 0 .316-1.897q-.145-.826-.535-1.143a1.42 1.42 0 0 0-.924-.316q-.778 0-1.58.462-.803.462-1.338.948-.73.584-1.24 1.338a5.4 5.4 0 0 0-.754 1.727q-.098.34-.39.292-.291-.097-.316-.487-.024-.39.098-.851.12-.462.316-.876.195-.413.34-.608.439-.729 1.192-1.386a9.682 9.682 0 0 1 3.697-1.97 7.5 7.5 0 0 1 2.018-.292q1.314 0 2.286.681.973.681 1.216 2.384a17 17 0 0 1-.56 3.015 38 38 0 0 1-.948 2.894 70 70 0 0 1-1.143 2.87 28 28 0 0 0-1.045 2.894q-.195.487-.39 1.314a4.8 4.8 0 0 0-.121 1.58q.073.755.462 1.265t1.265.413q1.604-.437 3.113-2.018a24 24 0 0 0 2.82-3.624 54 54 0 0 0 2.408-4.134A185 185 0 0 1 35.2 19.63q.487-.924.778-1.873t.535-1.921q.05-.39.56-.73t1.167-.608q.657-.267 1.265-.438t.85-.17q.44 0 .439.292a249 249 0 0 1-1.751 7.053 48 48 0 0 0-1.314 7.15 4.7 4.7 0 0 0 .049 1.508q.146.778.51 1.435.366.656.973 1.094.609.438 1.435.438 2.14-.049 4.013-1.508a13.5 13.5 0 0 0 3.186-3.575 17.6 17.6 0 0 0 1.994-4.524q.681-2.407.438-4.353-.098-.826-.584-1.41t-.85-1.12a1.96 1.96 0 0 1-.366-1.118q0-.584.876-1.41.779-.584 1.605-.584m14.495.243q3.94 0 3.94 3.697a5.1 5.1 0 0 1-.39 1.726 7.6 7.6 0 0 1-.875 1.533 10.2 10.2 0 0 1-1.97 1.848 18.4 18.4 0 0 1-2.432 1.483q-1.29.657-2.65 1.12-1.363.461-2.627.753a5 5 0 0 1-1.07.17 8 8 0 0 0-1.07.122q-.244 0-.414.535a7.6 7.6 0 0 0-.268 1.216q-.096.681-.145 1.313-.05.633-.05.827.147 2.043 1.12 3.137.972 1.095 3.015 1.095.924 0 1.751-.268a8.8 8.8 0 0 0 1.605-.705q1.605-.827 3.016-2.383 1.41-1.557 2.238-3.162a.43.43 0 0 0 .121-.194.43.43 0 0 1 .122-.195 1 1 0 0 1 .121-.097q.074-.05.122 0a1 1 0 0 1 .097.121q.05.074 0 .122 0 .146-.024.267t-.073.268a12.2 12.2 0 0 1-1.702 2.65 13.2 13.2 0 0 1-2.408 2.263 13 13 0 0 1-2.87 1.58 8.3 8.3 0 0 1-3.089.608q-2.14 0-3.89-1.118-1.752-1.119-2.14-3.357a9 9 0 0 1-.05-.924q0-.438-.048-.827.243-3.793 2.14-6.76a61 61 0 0 1 .973-1.508q.486-.73 1.021-1.46a15.6 15.6 0 0 1 1.703-1.824 20 20 0 0 1 2.213-1.775 13.3 13.3 0 0 1 2.48-1.362q1.29-.535 2.457-.535m.292.632q-.633 0-1.362.414a10 10 0 0 0-1.435.997q-.705.584-1.314 1.192-.607.608-.997 1.045-.535.682-1.191 1.63a22 22 0 0 0-1.24 2.018q-.585 1.07-1.095 2.092a11.4 11.4 0 0 0-.754 1.848q.39-.097.778-.097.39 0 .779-.097a20.4 20.4 0 0 0 3.088-1.046 11.9 11.9 0 0 0 2.797-1.678 10 10 0 0 0 2.14-2.383 7.6 7.6 0 0 0 1.119-3.065q.097-.534.121-1.046a2.7 2.7 0 0 0-.17-1.045q-.097-.487-.486-.633a2.2 2.2 0 0 0-.778-.146M172.51 55.89q1.702 0 2.918.851 1.215.852 1.751 2.651a.54.54 0 0 1 .049.244.33.33 0 0 0 .097.243q.39-.535.73-1.022.34-.486.73-.973.486-.535 1.045-.997a4.1 4.1 0 0 1 1.24-.705q.73-.34 1.362-.194.535.195.803.632.267.438.024 1.07a1.5 1.5 0 0 1-.194.535q-.147.243-.34.486-.292.39-.682 0-.486-.486-1.119-.486-1.02 0-1.507.973a.75.75 0 0 0-.146.462 2.6 2.6 0 0 1-.049.51q-.13.714-.227 1.417l-.09.7a33 33 0 0 1-.315 2.115q-.828 4.33-3.673 7.15t-6.834 3.697q-.972.195-1.945.267-.973.074-1.994-.024-1.897-.097-2.919 1.508-.34.39-.219.827.122.438.608.632.486.195.949.316t.997.22q1.215.145 2.383.267 1.168.12 2.384.267 1.118.097 2.237.243 1.119.147 2.238.536t1.945 1.143q.827.753 1.216 2.018.633 2.383-1.07 4.524a8.2 8.2 0 0 1-2.116 1.897 12.7 12.7 0 0 1-2.675 1.264q-1.435.487-2.943.681-1.507.195-2.87.195-1.702 0-3.331-.195a16.3 16.3 0 0 1-3.235-.73 13 13 0 0 1-1.435-.68q-.705-.39-1.337-1.022-.828-.827-.997-1.872-.17-1.047.413-2.165.633-1.215 1.605-1.97a8.8 8.8 0 0 1 2.238-1.24q.437-.146.924-.243.486-.098.924-.195.243-.048.51 0 .268.049.56.146-.632.34-1.167.632a19 19 0 0 0-1.07.633q-2.141 1.556-1.897 4.134.096 1.215.948 1.97t1.994 1.192q1.143.437 2.432.608 1.29.17 2.262.17 1.12 0 2.432-.17a10.7 10.7 0 0 0 2.505-.633 6.6 6.6 0 0 0 2.092-1.289q.9-.826 1.24-2.091.438-2.432-1.703-3.454a8.4 8.4 0 0 0-2.87-.778 26 26 0 0 0-1.945-.219 30 30 0 0 1-1.994-.219q-.584-.048-1.362-.194a14 14 0 0 1-1.557-.39 10 10 0 0 1-1.459-.583q-.68-.34-1.07-.875-1.215-1.314 0-2.968a5.4 5.4 0 0 1 1.46-1.264q.825-.486 1.75-.827.39-.097.487-.097a3.8 3.8 0 0 0-.681-.535 6 6 0 0 1-.73-.535q-1.41-1.314-1.702-3.357-.292-1.8.146-3.404a13.3 13.3 0 0 1 1.264-3.065 20.6 20.6 0 0 1 2.043-3.015 16.7 16.7 0 0 1 2.748-2.7 14.5 14.5 0 0 1 3.26-1.921 9 9 0 0 1 3.526-.73m-19.067-1.07q1.02 0 2.043.39 1.02.389 1.264 1.556.147.534.146 1.046 0 .51-.048 1.045a17 17 0 0 1-.706 2.797 91 91 0 0 0-.9 2.748q-.535 1.8-1.118 3.551-.584 1.75-1.119 3.453-.195.681-.365 1.29a4.8 4.8 0 0 0-.17 1.288q-.049.73.39 1.216.437.487 1.167.487.68 0 1.313-.316.632-.317 1.191-.803a9 9 0 0 0 1.022-1.046q.462-.559.851-1.046.097 0 .097-.072 0-.074.049-.073.146-.05.486-.05a.8.8 0 0 0 .05.244q.048.145 0 .243a3 3 0 0 1-.341.462q-.195.219-.39.462-.583.73-1.313 1.411t-1.58 1.216a9.5 9.5 0 0 1-1.776.876 5.5 5.5 0 0 1-1.897.34 5 5 0 0 1-2.189-.486q-1.02-.487-1.021-1.849 0-1.118.219-2.164t.56-2.067q.534-1.752 1.093-3.502.56-1.752 1.095-3.551.291-1.07.632-2.092.34-1.02.633-2.091.291-.779.048-1.605-.34-1.216-1.556-1.216-.73 0-1.557.364-.826.366-1.362.803a20.7 20.7 0 0 0-4.013 3.648 34 34 0 0 0-3.283 4.572 39 39 0 0 0-2.553 5.059 50 50 0 0 0-1.824 5.107q-.244.584-.73.535h-2.918q-.439 0-.34-.535a531 531 0 0 0 2.918-8.512 239 239 0 0 0 2.675-8.56q.098-.342.194-.706.098-.364.146-.754a4 4 0 0 0-.048-.73q-.05-.583-.681-.583a2.54 2.54 0 0 0-1.168.073 6 6 0 0 0-1.07.462q-.439.291-.802.632-.366.34-.754.681l-.195.195q-.097.098-.243.194-.097.195-.39.098-.194-.147 0-.487.585-.681 1.363-1.337.778-.657 1.654-1.168a10 10 0 0 1 1.8-.827 5.7 5.7 0 0 1 1.848-.316q.972 0 1.726.438t.803 1.556a8 8 0 0 1-.146 1.557 18 18 0 0 1-.39 1.556q-.355 1.103-.702 2.195l-.343 1.089q-.51 1.629-1.046 3.283v.097h.049q.39-.535.68-1.046.292-.51.633-1.045.827-1.314 2.213-2.992a28 28 0 0 1 3.065-3.161 20.6 20.6 0 0 1 3.477-2.505q1.8-1.022 3.454-1.022m-36.383 0q1.021 0 2.043.39 1.022.389 1.265 1.556.146.534.146 1.046 0 .51-.05 1.045a17 17 0 0 1-.704 2.797 91 91 0 0 0-.9 2.748q-.536 1.8-1.119 3.551-.583 1.75-1.119 3.453-.194.681-.364 1.29a4.8 4.8 0 0 0-.17 1.288q-.049.73.388 1.216.438.487 1.168.487.681 0 1.313-.316.633-.317 1.192-.803a9 9 0 0 0 1.021-1.046q.462-.559.851-1.046.098 0 .098-.072 0-.074.048-.073.147-.05.487-.05a.8.8 0 0 0 .048.244q.05.145 0 .243a3 3 0 0 1-.34.462q-.195.219-.39.462-.582.73-1.313 1.411-.73.681-1.58 1.216a9.5 9.5 0 0 1-1.776.876 5.5 5.5 0 0 1-1.897.34 5 5 0 0 1-2.188-.486q-1.022-.487-1.022-1.849 0-1.118.219-2.164.218-1.046.56-2.067.533-1.752 1.094-3.502.559-1.752 1.094-3.551.292-1.07.632-2.092.34-1.02.633-2.091.291-.779.048-1.605-.34-1.216-1.556-1.216-.729 0-1.557.364-.826.366-1.361.803a20.7 20.7 0 0 0-4.013 3.648 34 34 0 0 0-3.283 4.572 39 39 0 0 0-2.554 5.059 50 50 0 0 0-1.824 5.107q-.243.584-.73.535h-2.918q-.438 0-.34-.535a531 531 0 0 0 2.918-8.512 239 239 0 0 0 2.675-8.56q.097-.342.195-.706.096-.364.146-.754a4 4 0 0 0-.05-.73q-.047-.583-.68-.583a2.54 2.54 0 0 0-1.167.073 6 6 0 0 0-1.07.462q-.438.291-.803.632-.365.34-.754.681l-.195.195q-.096.098-.243.194-.097.195-.389.098-.195-.147 0-.487.584-.681 1.362-1.337.778-.657 1.654-1.168a10 10 0 0 1 1.8-.827 5.7 5.7 0 0 1 1.848-.316q.972 0 1.727.438.754.438.802 1.556a8 8 0 0 1-.146 1.557 18 18 0 0 1-.389 1.556 376 376 0 0 0-1.046 3.284q-.51 1.629-1.045 3.283v.097h.048q.39-.535.681-1.046.292-.51.632-1.045.828-1.314 2.214-2.992a28 28 0 0 1 3.064-3.161 20.6 20.6 0 0 1 3.478-2.505q1.8-1.022 3.453-1.022m-26.557 0q1.02 0 2.043.39 1.02.389 1.264 1.556.146.534.146 1.046 0 .51-.049 1.045a17 17 0 0 1-.705 2.797 91 91 0 0 0-.9 2.748q-.535 1.8-1.118 3.551-.584 1.75-1.12 3.453l-.364 1.29a4.8 4.8 0 0 0-.17 1.288q-.05.73.389 1.216.438.487 1.167.487.681 0 1.314-.316.632-.317 1.191-.803a9 9 0 0 0 1.022-1.046q.462-.559.851-1.046.097 0 .097-.072 0-.074.049-.073.146-.05.486-.05a.8.8 0 0 0 .049.244q.048.145 0 .243a3 3 0 0 1-.34.462q-.195.219-.39.462-.584.73-1.313 1.411-.73.681-1.58 1.216a9.5 9.5 0 0 1-1.776.876 5.5 5.5 0 0 1-1.897.34 5 5 0 0 1-2.189-.486q-1.02-.487-1.021-1.849 0-1.118.219-2.164.218-1.046.559-2.067.535-1.752 1.094-3.502.56-1.752 1.095-3.551.291-1.07.632-2.092.34-1.02.632-2.091.292-.779.049-1.605-.34-1.216-1.556-1.216-.73 0-1.557.364-.827.366-1.362.803a20.7 20.7 0 0 0-4.013 3.648 34 34 0 0 0-3.283 4.572 39 39 0 0 0-2.553 5.059 50 50 0 0 0-1.824 5.107q-.244.584-.73.535h-2.918q-.438 0-.341-.535a531 531 0 0 0 2.918-8.512 239 239 0 0 0 2.676-8.56q.097-.342.194-.706.098-.364.146-.754a4 4 0 0 0-.049-.73q-.048-.583-.68-.583a2.54 2.54 0 0 0-1.168.073 6 6 0 0 0-1.07.462q-.439.291-.802.632-.366.34-.754.681l-.195.195q-.097.098-.243.194-.097.195-.39.098-.194-.147 0-.487.585-.681 1.363-1.337.778-.657 1.653-1.168a10 10 0 0 1 1.8-.827 5.7 5.7 0 0 1 1.848-.316q.974 0 1.727.438t.803 1.556a8 8 0 0 1-.146 1.557 18 18 0 0 1-.39 1.556q-.356 1.103-.702 2.195l-.343 1.089q-.511 1.629-1.046 3.283v.097h.049q.39-.535.68-1.046.293-.51.633-1.045.827-1.314 2.213-2.992a28 28 0 0 1 3.064-3.161 20.6 20.6 0 0 1 3.478-2.505q1.8-1.022 3.454-1.022m38.425 1.022q.828 0 1.41.583.585.585.585 1.41 0 .682-.17 1.387-.171.705-.366 1.386l-1.07 3.405-1.07 3.405a348 348 0 0 1-.875 2.967 79 79 0 0 0-.827 2.967q-.097.293-.097.584t-.049.583q-.097.73.438 1.022.534.291 1.07.048a8.4 8.4 0 0 0 2.335-1.824 14.5 14.5 0 0 0 1.75-2.456.65.65 0 0 0 .147-.219q.048-.12.243-.024.195.097.097.535-.292.68-.754 1.435-.462.753-1.021 1.435-.56.68-1.216 1.264a7 7 0 0 1-1.29.925q-1.07.68-2.14.632-1.215.097-1.97-.632-.754-.731-.802-1.897 0-1.46.486-2.87.536-1.703 1.046-3.38.51-1.68 1.095-3.381.389-1.41.85-2.773a59 59 0 0 0 .852-2.723q.146-.73.097-1.314-.049-.39-.316-.56t-.657.074a4.9 4.9 0 0 0-1.264.924q-.438.535-.851 1.046-.414.51-.803 1.046-.34.535-.535.34-.146-.195-.122-.34a.44.44 0 0 1 .122-.244q.39-.778.949-1.605a9.6 9.6 0 0 1 1.288-1.532 7 7 0 0 1 1.606-1.167 3.8 3.8 0 0 1 1.8-.462m44.117 1.118q-1.557 0-3.113 1.265t-2.87 3.064a30 30 0 0 0-2.31 3.697q-.997 1.897-1.435 3.21l-.487 1.848a6.4 6.4 0 0 0-.194 1.946q.29 2.627 2.87 2.627 1.605 0 3.064-.852a11.8 11.8 0 0 0 2.65-2.115 14.7 14.7 0 0 0 2.068-2.797q.876-1.533 1.362-2.894.438-1.119.68-2.262.244-1.142.439-2.36.048-.534.073-1.093a6 6 0 0 0-.073-1.192 2.9 2.9 0 0 0-.925-1.508q-.68-.584-1.8-.584m-41.977-9.387q.828.097 1.314.754.486.656.389 1.483-.098.681-.608 1.24-.51.56-1.192.803a.8.8 0 0 0-.194.024 1 1 0 0 1-.244.025 2.7 2.7 0 0 1-1.118-.316q-.487-.268-.73-.852-.486-1.215.438-2.286.778-.875 1.702-.875zm38.183-33.683q1.703 0 2.918.851 1.216.852 1.751 2.651a.54.54 0 0 1 .049.244.33.33 0 0 0 .097.243q.39-.535.73-1.022.34-.486.73-.973.486-.535 1.045-.997a4.1 4.1 0 0 1 1.24-.705q.73-.34 1.362-.194.536.195.803.632.267.438.024 1.07a1.5 1.5 0 0 1-.194.535q-.147.243-.34.486-.292.39-.682 0-.486-.486-1.118-.486-1.022 0-1.508.973a.75.75 0 0 0-.146.462 2.6 2.6 0 0 1-.049.51q-.13.714-.227 1.417l-.089.7a33 33 0 0 1-.316 2.115q-.827 4.33-3.672 7.15t-6.834 3.697q-.973.195-1.946.267-.973.074-1.994-.024-1.897-.097-2.919 1.508-.34.39-.219.827.123.438.608.632.486.195.949.316t.997.22q1.216.146 2.383.267 1.168.12 2.384.267 1.119.097 2.237.243 1.119.147 2.238.536t1.945 1.143q.828.753 1.216 2.018.633 2.383-1.07 4.524a8.2 8.2 0 0 1-2.116 1.897 12.7 12.7 0 0 1-2.675 1.264q-1.434.487-2.943.681-1.507.195-2.87.195-1.702 0-3.331-.195a16.3 16.3 0 0 1-3.235-.73 13 13 0 0 1-1.435-.68q-.705-.39-1.337-1.022-.827-.826-.997-1.872t.413-2.165q.633-1.215 1.605-1.97a8.8 8.8 0 0 1 2.238-1.24q.438-.146.924-.243.486-.098.924-.195.243-.048.51 0 .27.049.56.146l-1.167.632a19 19 0 0 0-1.07.633q-2.141 1.556-1.897 4.134.097 1.215.948 1.97.852.754 1.994 1.192 1.143.437 2.432.608 1.29.17 2.262.17 1.12 0 2.432-.17a10.7 10.7 0 0 0 2.505-.633 6.6 6.6 0 0 0 2.092-1.289q.9-.826 1.24-2.091.438-2.432-1.702-3.454a8.4 8.4 0 0 0-2.87-.778 26 26 0 0 0-1.946-.219 30 30 0 0 1-1.994-.219q-.584-.048-1.362-.194a14 14 0 0 1-1.556-.39 10 10 0 0 1-1.46-.583q-.68-.34-1.07-.875-1.215-1.314 0-2.968a5.4 5.4 0 0 1 1.46-1.264q.826-.486 1.75-.827.39-.097.487-.097a3.8 3.8 0 0 0-.681-.535 6 6 0 0 1-.73-.535q-1.41-1.314-1.702-3.357-.292-1.8.146-3.404a13.3 13.3 0 0 1 1.265-3.065 20.6 20.6 0 0 1 2.042-3.015 16.7 16.7 0 0 1 2.749-2.7 14.5 14.5 0 0 1 3.258-1.921 9 9 0 0 1 3.527-.73m-19.067-1.07q1.02 0 2.043.39 1.02.389 1.264 1.556.147.534.146 1.046 0 .51-.048 1.045a17 17 0 0 1-.706 2.797 91 91 0 0 0-.9 2.748q-.534 1.8-1.118 3.551-.584 1.75-1.119 3.453-.195.681-.365 1.29a4.8 4.8 0 0 0-.17 1.288q-.049.73.39 1.216.436.487 1.167.487.68 0 1.313-.316.632-.317 1.192-.803a9 9 0 0 0 1.021-1.046q.462-.559.851-1.046.098 0 .098-.072 0-.074.048-.073.146-.05.487-.05a.8.8 0 0 0 .048.244q.05.146 0 .243a3 3 0 0 1-.34.462q-.195.219-.39.462-.583.73-1.313 1.411t-1.58 1.216a9.5 9.5 0 0 1-1.776.876 5.5 5.5 0 0 1-1.897.34 5 5 0 0 1-2.189-.486q-1.02-.486-1.021-1.849 0-1.118.219-2.164.218-1.045.56-2.067.534-1.752 1.094-3.502.559-1.751 1.094-3.551.292-1.07.632-2.092.34-1.02.633-2.091.291-.778.048-1.605-.34-1.216-1.556-1.216-.73 0-1.557.364-.826.365-1.362.803a20.7 20.7 0 0 0-4.012 3.648 34 34 0 0 0-3.284 4.572 39 39 0 0 0-2.553 5.059 50 50 0 0 0-1.824 5.107q-.244.584-.73.535h-2.918q-.439 0-.34-.535a531 531 0 0 0 2.918-8.512 239 239 0 0 0 2.675-8.56q.098-.342.194-.706.098-.364.146-.754a4 4 0 0 0-.048-.73q-.05-.583-.681-.583a2.54 2.54 0 0 0-1.168.073 6 6 0 0 0-1.07.462q-.437.291-.802.632-.365.34-.754.681l-.195.195q-.097.098-.243.194-.097.194-.389.098-.195-.147 0-.487.584-.681 1.362-1.337.778-.657 1.654-1.168a10 10 0 0 1 1.8-.827 5.7 5.7 0 0 1 1.848-.316q.972 0 1.726.438t.803 1.556a8 8 0 0 1-.146 1.557 18 18 0 0 1-.39 1.556q-.356 1.103-.702 2.195l-.343 1.089q-.51 1.629-1.046 3.283v.097h.049q.39-.535.681-1.046.292-.51.632-1.045.828-1.314 2.213-2.992a28 28 0 0 1 3.065-3.161 20.6 20.6 0 0 1 3.478-2.505q1.8-1.022 3.453-1.022m-24.515 1.022q.828 0 1.411.583.585.585.584 1.41 0 .682-.17 1.387-.171.705-.365 1.386l-1.07 3.405-1.07 3.405a348 348 0 0 1-.876 2.967 79 79 0 0 0-.827 2.967q-.097.293-.097.584t-.049.583q-.097.73.438 1.022.535.291 1.07.048a8.4 8.4 0 0 0 2.335-1.824 14.5 14.5 0 0 0 1.75-2.456.65.65 0 0 0 .147-.219q.048-.12.243-.024.195.097.097.535-.291.68-.754 1.435-.462.753-1.021 1.435-.56.68-1.216 1.264a7 7 0 0 1-1.29.925q-1.07.68-2.14.632-1.215.097-1.97-.632-.753-.731-.802-1.897 0-1.46.487-2.87.534-1.703 1.045-3.38.51-1.68 1.095-3.381.39-1.41.85-2.773a59 59 0 0 0 .852-2.723q.146-.73.097-1.314-.048-.39-.316-.56-.267-.17-.656.074a4.9 4.9 0 0 0-1.265.924q-.438.535-.851 1.046-.414.51-.803 1.046-.34.535-.535.34-.146-.195-.121-.34a.44.44 0 0 1 .121-.244q.39-.779.949-1.605a9.6 9.6 0 0 1 1.289-1.532 7 7 0 0 1 1.605-1.167 3.8 3.8 0 0 1 1.8-.462M96.195 1q.145.243.048.34-.064.195-.151.4L96 1.949q-.145.316-.243.608a80 80 0 0 0-1.265 3.162q-.584 1.556-1.167 3.259a988 988 0 0 0-3.26 9.168 134 134 0 0 0-2.869 9.315 11.6 11.6 0 0 0-.365 1.727q-.12.9-.267 1.726-.05.633 0 1.314.145.923.705 1.313t1.24.389q.925 0 1.751-.56a7.5 7.5 0 0 0 1.508-1.361q.682-.803 1.192-1.751.51-.949.803-1.727.145-.243.291-.243.098 0 .122.097a.8.8 0 0 1 .024.195q0 .242-.146.656a6 6 0 0 1-.364.827q-.219.414-.462.778t-.39.608q-.826 1.411-2.261 2.48Q89.142 35 87.439 35q-1.312 0-2.578-.827a3.3 3.3 0 0 1-.85-1.046 5 5 0 0 1-.463-1.289 8 8 0 0 1-.121-1.653q.024-.828.121-1.654.145-.875.39-1.703l.486-1.653q.048-.049 0-.146 0 .098-.146.243-.05.048-.049.097a.4.4 0 0 1-.049.146q-.632 1.314-1.726 2.943a26 26 0 0 1-2.432 3.089 14.3 14.3 0 0 1-2.919 2.456Q75.522 35 73.87 35q-1.556 0-2.627-.948a4.8 4.8 0 0 1-1.459-2.36 6.6 6.6 0 0 1-.243-1.775q0-.9.097-1.775.39-2.238 1.41-4.45a20.351 20.351 0 0 1 5.934-7.49 15.8 15.8 0 0 1 4.038-2.312 11 11 0 0 1 1.58-.462 5 5 0 0 1 1.63-.073q1.264.098 2.067.9a5 5 0 0 1 1.192 1.921q.535-1.458 1.094-2.918.56-1.46 1.095-2.967.534-1.264.973-2.554.437-1.288.924-2.602.049-.146.073-.267t.024-.268q.048-1.119-1.265-1.362a.7.7 0 0 1-.389-.097q-.39 0-.389-.34 0-.244.39-.244 1.167-.097 2.285-.243a8.3 8.3 0 0 0 2.238-.632q.34-.097.632-.268.292-.17.535-.316l.049-.049q.048 0 .048-.048.34-.098.39 0m25.487 0q.145.243.049.34a6 6 0 0 1-.244.608q-.145.316-.243.608a80 80 0 0 0-1.264 3.162q-.585 1.556-1.168 3.259a988 988 0 0 0-3.259 9.168 134 134 0 0 0-2.87 9.315 11.6 11.6 0 0 0-.364 1.727q-.121.9-.268 1.726-.048.633 0 1.314.146.923.705 1.313.56.39 1.24.389.925 0 1.752-.56a7.5 7.5 0 0 0 1.508-1.361q.68-.803 1.191-1.751.51-.949.803-1.727.145-.243.292-.243.097 0 .121.097a.8.8 0 0 1 .025.195q0 .242-.146.656a6 6 0 0 1-.365.827q-.219.414-.462.778t-.39.608q-.825 1.411-2.261 2.48Q114.629 35 112.927 35q-1.314 0-2.578-.827a3.3 3.3 0 0 1-.851-1.046 5 5 0 0 1-.462-1.289 8 8 0 0 1-.122-1.653q.024-.828.122-1.654.146-.875.389-1.703l.486-1.653q.048-.049 0-.146 0 .098-.146.243-.048.048-.049.097a.4.4 0 0 1-.048.146q-.632 1.314-1.727 2.943a26 26 0 0 1-2.432 3.089 14.3 14.3 0 0 1-2.918 2.456q-1.58.997-3.235.997-1.556 0-2.626-.948a4.8 4.8 0 0 1-1.46-2.36 6.6 6.6 0 0 1-.243-1.775q0-.9.097-1.775.39-2.238 1.411-4.45a20.351 20.351 0 0 1 5.934-7.49 15.8 15.8 0 0 1 4.037-2.312 11 11 0 0 1 1.581-.462 5 5 0 0 1 1.63-.073q1.265.098 2.067.9a5 5 0 0 1 1.191 1.921q.535-1.458 1.095-2.918t1.094-2.967q.535-1.264.973-2.554.438-1.288.924-2.602.05-.146.073-.267.024-.122.024-.268.049-1.119-1.264-1.362a.7.7 0 0 1-.39-.097q-.388 0-.388-.34 0-.244.389-.244 1.167-.097 2.286-.243a8.3 8.3 0 0 0 2.237-.632q.34-.097.632-.268.292-.17.536-.316l.048-.049q.05 0 .049-.048.34-.098.389 0M109.96 14.182q-.633 0-1.07.195-1.654.486-3.113 1.775-1.46 1.29-2.627 2.943a28 28 0 0 0-2.091 3.477 34 34 0 0 0-1.508 3.381 16.7 16.7 0 0 0-1.022 4.961q0 .536.098.997.096.463.34.949.39.924 1.41.924.682 0 1.265-.219.584-.218 1.119-.608 1.41-.827 2.845-2.553a32 32 0 0 0 2.676-3.746 40 40 0 0 0 2.213-4.11q.972-2.091 1.459-3.648.243-.681.365-1.362.12-.681.024-1.362-.097-.924-.803-1.459a2.55 2.55 0 0 0-1.58-.535m-25.488 0q-.632 0-1.07.195-1.653.486-3.113 1.775-1.46 1.29-2.626 2.943a28 28 0 0 0-2.092 3.477 34 34 0 0 0-1.508 3.381 16.7 16.7 0 0 0-1.021 4.961q0 .536.097.997.098.463.34.949.39.924 1.411.924.681 0 1.265-.219.584-.218 1.119-.608 1.41-.827 2.845-2.553a32 32 0 0 0 2.675-3.746 40 40 0 0 0 2.213-4.11q.973-2.091 1.46-3.648.243-.681.364-1.362.122-.681.025-1.362-.098-.924-.803-1.459a2.55 2.55 0 0 0-1.58-.535m85.315.778q-1.556 0-3.113 1.265t-2.87 3.064a30 30 0 0 0-2.31 3.697q-.997 1.898-1.435 3.21l-.487 1.848a6.4 6.4 0 0 0-.194 1.946q.291 2.627 2.87 2.627 1.605 0 3.064-.852a11.8 11.8 0 0 0 2.65-2.115 14.7 14.7 0 0 0 2.068-2.797q.876-1.532 1.362-2.894.438-1.119.681-2.262t.438-2.36q.048-.534.073-1.093a6 6 0 0 0-.073-1.192 2.9 2.9 0 0 0-.924-1.508q-.681-.584-1.8-.584M127.81 5.573q.826.097 1.313.754.486.656.389 1.483-.098.681-.608 1.24-.51.56-1.192.803a.8.8 0 0 0-.194.024 1 1 0 0 1-.243.025 2.7 2.7 0 0 1-1.12-.316q-.485-.268-.729-.852-.486-1.215.438-2.286.778-.875 1.702-.875zM22.359 55.89q.39 0 .632.17.243.17 0 .56a1601 1601 0 0 1-1.75 4.84 244 244 0 0 0-1.703 4.84 28 28 0 0 1 3.453-5.303 15.7 15.7 0 0 1 4.962-3.988q1.8-.973 3.404-.973 2.043 0 3.405 1.41 1.362 1.412 1.265 4.086a19.7 19.7 0 0 1-.924 4.5 19 19 0 0 1-1.946 4.158 18.4 18.4 0 0 1-2.894 3.551 16.3 16.3 0 0 1-3.72 2.675q-1.07.535-2.36.9t-2.554.365q-1.556 0-2.82-.657-1.265-.656-1.946-2.31-.73 2.383-1.484 4.694-.753 2.31-1.483 4.645-.097.438-.316 1.094-.22.657-.365 1.29a3.4 3.4 0 0 0-.073 1.19q.072.56.56.852.34.292.802.34.462.05.875.073.414.025.681.122t.268.39q0 .242-.146.315a.65.65 0 0 1-.292.073l-1.702-.097-1.703-.097q-2.481 0-5.01.146-.39-.097-.875.024-.487.122-.633-.365.05-.438.438-.462.39-.025.681-.121.973-.195 1.46-.998.486-.802.875-1.532 1.265-3.501 2.359-7.053 1.095-3.55 2.213-7.101a254 254 0 0 0 1.873-5.958q.9-2.992 1.92-6.007a2 2 0 0 0 .098-.657q0-.365-.097-.705a1.16 1.16 0 0 0-.34-.56q-.244-.219-.633-.219h-.705q-.316 0-.705.049-.39.048-.438-.292-.05-.34.34-.389 1.752-.34 3.527-.73 1.775-.388 3.526-.778m39.812 1.022q1.144.778 1.192 2.578.34-.535.608-1.143.267-.609.656-1.143a.72.72 0 0 1 .657-.073q.364.12.705.024.39-.049.705-.122.317-.072.657-.17a.8.8 0 0 0 .316-.073q.17-.073.268.122.097.098.024.267a.9.9 0 0 1-.17.268 166 166 0 0 0-2.165 4.085 80 80 0 0 0-1.97 4.135q-.195.583-.632 1.654a35 35 0 0 0-.851 2.334q-.414 1.264-.754 2.603-.34 1.337-.365 2.407t.365 1.751 1.362.681q1.265 0 2.286-.656a7.9 7.9 0 0 0 1.824-1.63 9.7 9.7 0 0 0 1.338-2.14 14.6 14.6 0 0 0 .826-2.237q.245.242.17.656-.072.414-.17.706-.583 1.556-1.386 2.699a10 10 0 0 1-1.727 1.921q-.924.78-1.896 1.143a5.4 5.4 0 0 1-1.897.365q-1.217 0-2.165-.632-.948-.633-1.41-1.848-.463-1.217-.268-3.065.195-1.849 1.265-4.231a209 209 0 0 1-1.63 2.504 21 21 0 0 1-1.848 2.408 18 18 0 0 1-2.14 2.043 10 10 0 0 1-2.603 1.508q-1.167.438-2.042.438-1.46 0-2.19-.949-.73-.948-.923-2.335-.195-1.386.073-2.967.267-1.58.85-2.796a31.5 31.5 0 0 1 2.092-3.794 23 23 0 0 1 2.724-3.478 17.3 17.3 0 0 1 3.332-2.724 11.2 11.2 0 0 1 4.013-1.532q1.75-.34 2.894.438M49.16 40.058q.291.073.146.608a641 641 0 0 1-5.23 16.319A253 253 0 0 0 39.189 73.4q-.096.583.098 1.07.291.972.973.973.583 0 1.264-.633.681-.632 1.338-1.459a12.4 12.4 0 0 0 1.119-1.654q.461-.826.608-1.216.097-.243.194-.462t.34-.121q.195.097.195.291a.6.6 0 0 1-.097.34q-.535 1.412-1.362 2.603a11 11 0 0 1-1.8 2.043 9 9 0 0 1-1.97 1.338q-.996.486-1.824.486-.73 0-1.289-.39-.559-.388-.827-1.264-.267-.875-.145-2.237.12-1.362.705-3.26 2.14-6.809 4.304-13.545a361 361 0 0 0 4.062-13.547q-.049-.632-.827-.632-.487 0-1.021.122-.535.12-.876.024a3 3 0 0 1 .17-.365q.073-.121.316-.17a15 15 0 0 0 2.87-.657q1.362-.462 2.773-.997.39-.097.68-.024M29.363 57.64q-.875 0-1.75.462a9.3 9.3 0 0 0-1.679 1.143 18 18 0 0 0-1.508 1.435q-.705.754-1.24 1.338a31 31 0 0 0-3.454 5.253 29 29 0 0 0-2.237 5.788q.195 2.043 1.119 2.87t2.237.827q.876 0 1.849-.34a9.3 9.3 0 0 0 1.896-.925 9.7 9.7 0 0 0 1.679-1.337 8.7 8.7 0 0 0 1.24-1.533 25.8 25.8 0 0 0 2.991-5.593 20.5 20.5 0 0 0 1.338-6.177q0-1.314-.487-2.262-.486-.95-1.994-.949m30.595-.632a5.04 5.04 0 0 0-2.651 1.289 27 27 0 0 0-2.116 2.164 33 33 0 0 0-2.335 2.943 25 25 0 0 0-1.97 3.283 20 20 0 0 0-1.362 3.502q-.51 1.8-.608 3.697-.096 1.265.341 1.775t1.119.511q.535 0 1.216-.267.681-.268 1.362-.754a23.8 23.8 0 0 0 5.423-6.032 57 57 0 0 0 3.867-7.198 6.2 6.2 0 0 0 .389-1.654 4.3 4.3 0 0 0-.146-1.727q-.243-.802-.851-1.265t-1.678-.267"/>
    <path fill="#fff" d="M38.69 103.501q1.41 0 2.65.462a5.6 5.6 0 0 1 2.14 1.41q.9.95 1.41 2.433.511 1.483.463 3.526-.048 2.53-1.046 5.059a16.6 16.6 0 0 1-2.675 4.548 13.5 13.5 0 0 1-3.964 3.258q-2.286 1.24-5.01 1.24a7.9 7.9 0 0 1-2.846-.51 6.2 6.2 0 0 1-2.31-1.532q-.972-1.021-1.508-2.554-.534-1.532-.438-3.575.147-3.161 1.435-5.715 1.29-2.553 3.186-4.353 1.897-1.8 4.159-2.748 2.262-.95 4.353-.949m-12.015-12.5q.146.243.049.34a6 6 0 0 1-.243.608q-.147.316-.244.608a80 80 0 0 0-1.264 3.162q-.584 1.556-1.168 3.259a988 988 0 0 0-3.258 9.168 134 134 0 0 0-2.87 9.315 11.6 11.6 0 0 0-.365 1.727q-.121.9-.268 1.726-.048.633 0 1.314.147.923.706 1.313.56.39 1.24.389.924 0 1.751-.56a7.5 7.5 0 0 0 1.508-1.361q.68-.803 1.192-1.751.51-.949.802-1.727.146-.243.292-.243.097 0 .122.097a.8.8 0 0 1 .024.195q0 .242-.146.656a6 6 0 0 1-.365.827q-.219.414-.462.778t-.389.608q-.826 1.411-2.262 2.48Q19.623 125 17.92 125q-1.314 0-2.578-.827a3.3 3.3 0 0 1-.851-1.046 5 5 0 0 1-.462-1.289 8 8 0 0 1-.122-1.653q.024-.828.122-1.654.146-.875.389-1.703l.486-1.653q.05-.049 0-.146 0 .098-.146.243-.048.049-.048.097a.4.4 0 0 1-.049.146q-.632 1.314-1.727 2.943a26 26 0 0 1-2.432 3.089 14.3 14.3 0 0 1-2.918 2.456q-1.58.997-3.235.997-1.556 0-2.626-.948a4.8 4.8 0 0 1-1.46-2.36 6.6 6.6 0 0 1-.243-1.775q0-.9.098-1.775.39-2.238 1.41-4.45a20.351 20.351 0 0 1 5.934-7.49 15.8 15.8 0 0 1 4.038-2.312 11 11 0 0 1 1.58-.462 5 5 0 0 1 1.63-.073q1.265.097 2.067.9a5 5 0 0 1 1.192 1.921q.534-1.458 1.094-2.918t1.094-2.967q.535-1.264.973-2.554.438-1.288.924-2.602.05-.145.073-.267.025-.122.025-.268.048-1.119-1.265-1.362a.7.7 0 0 1-.39-.097q-.388 0-.388-.34 0-.244.389-.244 1.167-.097 2.286-.243a8.3 8.3 0 0 0 2.237-.632q.34-.097.633-.268.291-.17.535-.316l.048-.049q.05 0 .05-.048.34-.098.388 0m11.333 13.716q-1.167 0-2.334.73-1.314.778-2.773 2.602a21.5 21.5 0 0 0-2.553 4.086 18.8 18.8 0 0 0-1.557 4.693q-.462 2.433.122 4.524.534 1.702 1.58 2.578t2.262.875q.924 0 1.703-.437a11.1 11.1 0 0 0 3.307-2.87q1.41-1.8 2.335-3.867a20.4 20.4 0 0 0 1.362-4.159q.438-2.091.389-3.696-.097-2.53-1.216-3.794t-2.627-1.265m-23.055-.535q-.633 0-1.07.195-1.654.486-3.113 1.775-1.459 1.29-2.627 2.943a28 28 0 0 0-2.091 3.477 34 34 0 0 0-1.508 3.381 16.7 16.7 0 0 0-1.021 4.961q0 .536.097.997.097.463.34.949.39.924 1.41.924.682 0 1.266-.219t1.118-.608q1.411-.826 2.846-2.553a32 32 0 0 0 2.675-3.746 40 40 0 0 0 2.213-4.11q.973-2.091 1.46-3.648.242-.681.364-1.362t.024-1.362q-.097-.924-.802-1.459a2.55 2.55 0 0 0-1.581-.535m38.231 10.409q.39-.535.681-1.046.292-.51.632-1.045.828-1.314 2.213-2.992a28 28 0 0 1 3.065-3.161 20.6 20.6 0 0 1 3.477-2.505q1.8-1.022 3.454-1.022 1.02 0 2.043.39 1.02.389 1.264 1.556.146.534.146 1.046 0 .51-.048 1.045a17 17 0 0 1-.706 2.797 91 91 0 0 0-.9 2.748q-.534 1.8-1.118 3.551-.584 1.75-1.119 3.453-.195.681-.365 1.29a4.8 4.8 0 0 0-.17 1.288q-.049.73.39 1.216.436.487 1.167.487.68 0 1.313-.316.632-.317 1.192-.803a9 9 0 0 0 1.021-1.046q.462-.559.851-1.046.097 0 .097-.072 0-.074.05-.073.145-.05.486-.05a.8.8 0 0 0 .048.244q.05.145 0 .243a3 3 0 0 1-.34.462q-.195.219-.39.462-.583.73-1.313 1.411t-1.58 1.216a9.5 9.5 0 0 1-1.776.876 5.5 5.5 0 0 1-1.897.34 5 5 0 0 1-2.189-.486q-1.02-.487-1.021-1.849 0-1.118.219-2.164t.56-2.067q.534-1.752 1.094-3.502.558-1.752 1.094-3.551.292-1.07.632-2.092.34-1.02.633-2.091.291-.779.048-1.605-.34-1.216-1.556-1.216-.73 0-1.557.364-.827.365-1.362.803a20.7 20.7 0 0 0-4.012 3.648 34 34 0 0 0-3.284 4.572 39 39 0 0 0-2.553 5.059 50 50 0 0 0-1.824 5.107q-.243.584-.73.535h-2.918q-.438 0-.34-.535a531 531 0 0 0 2.918-8.512 239 239 0 0 0 2.675-8.56q.098-.342.194-.706.098-.364.146-.754a4 4 0 0 0-.048-.73q-.05-.583-.681-.583a2.54 2.54 0 0 0-1.168.073 6 6 0 0 0-1.07.462 6 6 0 0 0-.802.632q-.365.34-.754.681l-.195.195q-.097.098-.243.194-.097.195-.389.098-.195-.147 0-.487.584-.681 1.362-1.337.778-.657 1.654-1.168a10 10 0 0 1 1.8-.827 5.7 5.7 0 0 1 1.848-.316q.973 0 1.726.438.754.438.803 1.556a8 8 0 0 1-.146 1.557 18 18 0 0 1-.39 1.556 376 376 0 0 0-1.045 3.284q-.51 1.629-1.046 3.283v.097zm19.796 4.134q.244-3.793 2.14-6.76a61 61 0 0 1 .973-1.508q.487-.73 1.022-1.46a15.6 15.6 0 0 1 1.702-1.824 20 20 0 0 1 2.213-1.775 13.3 13.3 0 0 1 2.481-1.362q1.29-.535 2.456-.535 3.94 0 3.94 3.697a5.1 5.1 0 0 1-.389 1.726 7.6 7.6 0 0 1-.875 1.533 10.2 10.2 0 0 1-1.97 1.848 18.4 18.4 0 0 1-2.432 1.483q-1.29.657-2.651 1.12-1.362.461-2.627.753a5 5 0 0 1-1.07.17 8 8 0 0 0-1.07.122q-.243 0-.413.535a7.6 7.6 0 0 0-.268 1.216q-.097.681-.146 1.313t-.048.827q.146 2.043 1.118 3.137.973 1.095 3.016 1.095.924 0 1.751-.268a8.8 8.8 0 0 0 1.605-.705q1.605-.827 3.016-2.383 1.41-1.557 2.237-3.162a.43.43 0 0 0 .122-.194.43.43 0 0 1 .121-.195 1 1 0 0 1 .122-.097q.074-.05.122 0a1 1 0 0 1 .097.121q.048.074 0 .122 0 .145-.024.267-.025.121-.073.268a12.2 12.2 0 0 1-1.703 2.65 13.2 13.2 0 0 1-2.407 2.263 13 13 0 0 1-2.87 1.58 8.3 8.3 0 0 1-3.089.608q-2.14 0-3.891-1.118t-2.14-3.357a9 9 0 0 1-.049-.924q0-.437-.049-.827m3.892-3.356q.39-.097.778-.097.39 0 .778-.097a20.4 20.4 0 0 0 3.089-1.046 11.9 11.9 0 0 0 2.797-1.678 10 10 0 0 0 2.14-2.383 7.6 7.6 0 0 0 1.118-3.065q.098-.534.122-1.046a2.7 2.7 0 0 0-.17-1.045q-.097-.487-.487-.633a2.2 2.2 0 0 0-.778-.146q-.632 0-1.362.414a10 10 0 0 0-1.435.997q-.705.584-1.313 1.192t-.997 1.045q-.535.681-1.192 1.63a22 22 0 0 0-1.24 2.018q-.585 1.07-1.094 2.092a11.4 11.4 0 0 0-.754 1.848m88.281-19.407q.195.097.195.219 0 .12-.049.267l-.778 2.627q-.39 1.313-.778 2.578-.194.632-.098.754.097.12.73.121h3.55q.195 0 .463-.024.267-.024.486.024.22.05.34.17.123.123-.024.414-.291.438-.778.438-1.021.048-2.018.048-.998 0-2.019.049a6 6 0 0 1-.827.049q-.486 0-.632.437a361 361 0 0 1-2.602 8.342 232 232 0 0 0-2.554 8.39q-.34 1.412.073 1.995t1.143.584q.535 0 1.216-.292t1.313-.827a12 12 0 0 0 1.63-1.532 62 62 0 0 0 1.435-1.678 9 9 0 0 0 .34-.365q.195-.219.438.024.146.097.097.292t-.194.389q-.147.194-.292.365a1 1 0 0 0-.195.316q-.632.778-1.435 1.63a17 17 0 0 1-1.702 1.58q-.9.73-1.921 1.192a5.1 5.1 0 0 1-2.14.462q-1.217 0-2.165-.632-.948-.633-1.143-2.043a4.5 4.5 0 0 1 0-1.605q.146-.78.389-1.508a357 357 0 0 1 2.408-7.71 176 176 0 0 0 2.31-7.709 8.5 8.5 0 0 0-1.556-.049q-.73.05-1.557.049-.195 0-.365-.049-.134-.037-.162-.197l-.057.003q-1.02.048-2.018.048t-2.019.049a6 6 0 0 1-.827.049q-.486 0-.632.437a361 361 0 0 1-2.602 8.342 232 232 0 0 0-2.554 8.39q-.34 1.412.073 1.995t1.143.584q.535 0 1.216-.292t1.314-.827a12 12 0 0 0 1.629-1.532 62 62 0 0 0 1.435-1.678 9 9 0 0 0 .34-.365q.195-.219.438.024.146.097.097.292t-.194.389-.292.365a1 1 0 0 0-.195.316q-.632.778-1.434 1.63a17 17 0 0 1-1.703 1.58q-.9.73-1.921 1.192a5.1 5.1 0 0 1-2.14.462q-1.215 0-2.165-.632-.948-.633-1.143-2.043a4.5 4.5 0 0 1 0-1.605q.146-.78.39-1.508a357 357 0 0 1 2.407-7.71 176 176 0 0 0 2.31-7.709 8.5 8.5 0 0 0-1.556-.049q-.729.05-1.557.049-.194 0-.364-.049-.17-.048-.17-.292-.049-.145.097-.243.145-.097.292-.146 1.556-.243 2.772-.9 1.216-.656 2.237-1.58a15 15 0 0 0 1.873-2.043 35 35 0 0 0 1.63-2.335q.243-.292.535-.243.194.097.194.219 0 .12-.048.267l-.779 2.627q-.39 1.313-.778 2.578-.195.632-.097.754.097.12.73.121h3.55q.195 0 .462-.024t.487.024q.218.05.34.17.095.096.026.296a8.3 8.3 0 0 0 2.382-.83q1.215-.657 2.237-1.581a15 15 0 0 0 1.873-2.043 35 35 0 0 0 1.63-2.335q.242-.292.534-.243m27.628 7.904a.45.45 0 0 1 .097.292q0 .17-.073.365a1 1 0 0 0-.073.291q-.925 2.578-1.75 5.083-.828 2.504-1.606 5.132a61 61 0 0 1 1.946-3.575 24.3 24.3 0 0 1 2.407-3.405 14.4 14.4 0 0 1 3.016-2.7q1.678-1.118 3.77-1.41.73-.097 1.289.243t.85.876.268 1.191a2.36 2.36 0 0 1-.413 1.24q-.34.683-1.095 1.095a3.15 3.15 0 0 1-1.532.413q-.632 0-1.118-.34-.488-.34-.584-1.07 0-.438-.268-.827-.268-.39-.802-.146-2.042.924-3.746 2.991a26 26 0 0 0-2.99 4.548 37 37 0 0 0-2.19 5.107 59 59 0 0 0-1.435 4.767q-.097.68-.291.754-.195.074-.73.122-.438 0-.876.048a8 8 0 0 1-.875.049h-.438q-.291 0-.535-.049a.6.6 0 0 1-.365-.194q-.12-.145-.024-.438a71 71 0 0 0 2.918-7.904 283 283 0 0 0 2.335-8.147q.195-.73.17-1.168-.024-.436-.218-.705a.85.85 0 0 0-.463-.34 2.3 2.3 0 0 0-.608-.073q-.388 0-.802.073-.413.072-.705.073-.39 0-.438-.195-.049-.244.292-.34a22 22 0 0 0 3.696-.803q1.8-.56 3.648-.948.244-.098.34.024m-13.62-.365q3.94 0 3.94 3.697a5.1 5.1 0 0 1-.389 1.726 7.6 7.6 0 0 1-.875 1.533 10.2 10.2 0 0 1-1.97 1.848 18.4 18.4 0 0 1-2.432 1.483q-1.29.657-2.651 1.12-1.361.461-2.627.753a5 5 0 0 1-1.07.17 8 8 0 0 0-1.07.122q-.243 0-.413.535a7.6 7.6 0 0 0-.268 1.216q-.097.681-.146 1.313t-.048.827q.146 2.043 1.118 3.137.973 1.095 3.016 1.095.924 0 1.751-.268a8.8 8.8 0 0 0 1.605-.705q1.606-.827 3.016-2.383t2.237-3.162a.5.5 0 0 0 .098-.13l.024-.064a.43.43 0 0 1 .122-.195 1 1 0 0 1 .121-.097q.074-.05.122 0a1 1 0 0 1 .097.121q.05.074 0 .122 0 .145-.024.267-.024.121-.073.268a12.2 12.2 0 0 1-1.703 2.65 13.2 13.2 0 0 1-2.407 2.263 13 13 0 0 1-2.87 1.58 8.3 8.3 0 0 1-3.089.608q-2.14 0-3.89-1.118-1.752-1.119-2.141-3.357a9 9 0 0 1-.049-.924q0-.437-.048-.827.243-3.793 2.14-6.76a61 61 0 0 1 .973-1.508q.486-.73 1.021-1.46a15.6 15.6 0 0 1 1.703-1.824 20 20 0 0 1 2.213-1.775 13.3 13.3 0 0 1 2.48-1.362q1.29-.535 2.457-.535m-41.246 0q3.94 0 3.94 3.697a5.1 5.1 0 0 1-.39 1.726 7.6 7.6 0 0 1-.875 1.533 10.2 10.2 0 0 1-1.97 1.848 18.4 18.4 0 0 1-2.432 1.483q-1.29.657-2.65 1.12-1.363.461-2.627.753a5 5 0 0 1-1.07.17 8 8 0 0 0-1.07.122q-.244 0-.414.535a7.6 7.6 0 0 0-.267 1.216q-.098.681-.146 1.313-.05.632-.049.827.145 2.043 1.119 3.137.973 1.095 3.015 1.095.925 0 1.751-.268a8.8 8.8 0 0 0 1.606-.705q1.605-.827 3.015-2.383t2.238-3.162a.43.43 0 0 0 .121-.194.43.43 0 0 1 .122-.195 1 1 0 0 1 .122-.097q.073-.05.121 0a1 1 0 0 1 .097.121q.05.074 0 .122 0 .145-.024.267-.024.121-.073.268a12.2 12.2 0 0 1-1.702 2.65 13.2 13.2 0 0 1-2.408 2.263 13 13 0 0 1-2.87 1.58 8.3 8.3 0 0 1-3.088.608q-2.14 0-3.892-1.118-1.75-1.119-2.14-3.357a9 9 0 0 1-.048-.924q0-.437-.049-.827.244-3.793 2.14-6.76a61 61 0 0 1 .973-1.508q.487-.73 1.021-1.46a15.6 15.6 0 0 1 1.703-1.824 20 20 0 0 1 2.213-1.775 13.3 13.3 0 0 1 2.48-1.362q1.29-.535 2.457-.535m-12.063-16.878q.145 1.46-.17 2.845-.316 1.387-.949 2.7-.632 1.314-1.434 2.53t-1.581 2.334a66 66 0 0 1-2.602 3.283 42 42 0 0 1-2.846 3.04q-1.41 1.264-2.724 2.602a16 16 0 0 0-2.286 2.943q0 .05.049.097a47 47 0 0 1 1.702-1.897 12 12 0 0 1 1.897-1.629 9.5 9.5 0 0 1 2.165-1.119q1.143-.413 2.505-.413 2.383 0 3.866 1.63 1.485 1.629 1.29 4.644-.098 2.58-1.192 5.205a17.6 17.6 0 0 1-2.919 4.742 15.2 15.2 0 0 1-4.207 3.43 10.4 10.4 0 0 1-5.107 1.313q-1.216 0-2.067-.243-.852-.244-1.435-.754-.585-.51-.997-1.362-.414-.851-.706-2.019h-.097l-.249.681-.116.316-.365.997-.09.244-.08.243a6 6 0 0 1-.17.486q-.048.243-.438.243a14 14 0 0 0-.73-.073 10 10 0 0 0-.729-.024q-.681 0-1.289.073t-1.289.17q-.34.146-.535-.243 0-.194.146-.194.826-.244 1.289-.876.462-.633.802-1.313l3.113-7.102 3.113-7.101a66 66 0 0 0 1.703-3.843 120 120 0 0 1 1.897-4.377 95 95 0 0 1 2.189-4.475 34 34 0 0 1 2.553-4.159 19.4 19.4 0 0 1 3.016-3.332q1.63-1.41 3.526-2.091 2.287-.39 2.578 1.848m-6.76 18.094q-.73 0-1.606.316t-1.702.779-1.484.997q-.657.534-1.046.924-1.167 1.07-2.578 3.064a24.8 24.8 0 0 0-2.407 4.232q-.997 2.237-1.192 4.402t1.07 3.623q1.168 1.168 2.773 1.168 1.216 0 2.334-.681a18.2 18.2 0 0 0 3.43-3.089 19.117 19.117 0 0 0 4.159-8.099q.534-2.237.437-4.523a19 19 0 0 1-.122-.705 9 9 0 0 0-.218-.997q-.244-.78-.706-1.095-.462-.316-1.143-.316m60.361-.584q-.632 0-1.361.414a10 10 0 0 0-1.435.997q-.705.584-1.314 1.192-.607.608-.997 1.045-.535.681-1.191 1.63a22 22 0 0 0-1.24 2.018q-.585 1.07-1.095 2.092a11.4 11.4 0 0 0-.754 1.848q.39-.097.778-.097.39 0 .778-.097a20.4 20.4 0 0 0 3.089-1.046 11.9 11.9 0 0 0 2.797-1.678 10 10 0 0 0 2.14-2.383 7.6 7.6 0 0 0 1.119-3.065q.097-.534.121-1.046a2.7 2.7 0 0 0-.17-1.045q-.098-.487-.486-.633a2.2 2.2 0 0 0-.779-.146m-41.246 0q-.633 0-1.362.414a10 10 0 0 0-1.435.997q-.705.584-1.313 1.192-.609.608-.997 1.045-.535.681-1.192 1.63a22 22 0 0 0-1.24 2.018q-.584 1.07-1.095 2.092a11.4 11.4 0 0 0-.754 1.848q.39-.097.778-.097.39 0 .779-.097a20.4 20.4 0 0 0 3.088-1.046 11.9 11.9 0 0 0 2.797-1.678 10 10 0 0 0 2.14-2.383 7.6 7.6 0 0 0 1.119-3.065q.097-.534.122-1.046a2.7 2.7 0 0 0-.17-1.045q-.098-.487-.487-.633a2.2 2.2 0 0 0-.778-.146m-14.057-18.58q-.633 0-1.362.535a10.6 10.6 0 0 0-2.189 2.578 53 53 0 0 0-4.353 8.488 782 782 0 0 1-3.624 8.828 146 146 0 0 1 3.843-3.989 51 51 0 0 0 3.745-4.183 33 33 0 0 0 3.089-4.596 17.4 17.4 0 0 0 1.872-5.18q.195-1.071-.073-1.776-.267-.705-.948-.705"/></g></svg>