<svg xmlns="http://www.w3.org/2000/svg" viewBox="0 0 1000 498.22">

<g fill="#fff">
<path d="M408.87 266.01c.66-1.78 1.17-3.61 1.72-5.42.53-1.77 1.45-3.53 1.8-5.34.03-.17-4.18-.19-4.49-.22-1.74-.16-3.46-.58-5.09-1.18-1.65-.61-3.27-1.46-4.39-2.82-1.8-2.2-1.88-5.64-.17-7.92.88-1.18 2.15-2.03 3.5-2.62 5.67-2.48 12.06-1.99 17.95-3.66 4.1-1.16 7.89-3.34 11.13-6.09.74-.63 2.05-1.46 2.37-2.43 9.32-27.92 18.64-55.85 27.97-83.77h-41.98l-29.34 107.04-32.29-102.42h-24.98l-28.71 102.75-30.49-107.38h-41.16l52.15 155.18h38.85l23.03-75.57 24.15 75.57h25.46c5.44-10.71 8.89-22.47 13.03-33.7Zm-211.7-4.93c12.63 2.87 16.08-12.35 19.81-9.76.29.86.86 2.3.29 3.44-9.19 21.25-17.51 43.35-26.13 65.18-.86 2.58-2.58 6.32-6.03 5.17-1.44-.29-2.3-1.72-2.01-4.02 2.87-14.93 6.6-30.43 2.87-45.36-41.06-78.67-135.52 33.02-140.69 87.28C35.8 466.08 134 464.94 172.47 388.56c1.15-2.01 2.58-2.3 4.02-1.43 1.44.57 1.44 1.72.86 3.73-16.37 36.18-52.25 65.46-92.45 61.73-164.52-14.93-14.93-279.36 112.26-191.51Zm37.32 194.09c-24.12 0-43.35-16.37-41.92-48.24 2.3-49.96 44.5-81.25 77.52-81.25 22.11 0 40.2 14.07 39.34 46.23-1.15 40.2-32.16 83.27-74.94 83.27Zm.58-3.73a21 21 0 0 0 10.05-2.58c29.86-16.65 44.5-60.58 43.64-86.14-.86-19.81-10.91-29.86-22.68-29.86-4.59 0-9.19 1.43-13.78 4.31-20.96 12.63-49.38 61.16-39.91 93.89 4.02 13.49 13.21 20.38 22.68 20.38"/>

<path d="M363.7 410.67c-1.72-.57-2.58 1.72-3.16 3.44-2.01 6.03-16.65 29.29-25.55 29.29-2.58 0-4.59-1.72-5.74-5.74-.86-2.3-.86-4.31-.57-6.32 10.61-40.31 23.28-79.74 36.08-119.18-1.91-.54-3.63-1.85-4.52-4.13-2.38-6.07-3.28-12.57-4.49-18.95-.44-2.31-.82-4.92-1.38-7.52-12.8 42.91-26.93 86.05-40.34 128.82-9.48 30.15-2.58 42.21 9.19 42.21 13.21 0 32.73-15.79 41.06-38.19.57-1.15.86-2.87-.57-3.73Zm79.52-35.03c3.73-6.03 7.75-11.77 11.77-17.52 10.05-12.35 22.11-22.11 36.75-28.71 5.17-2.3 10.91-4.02 16.94-3.73 7.47 0 14.36 2.3 18.95 8.9 2.58 4.02 2.87 8.61 2.87 12.92-.29 7.18-3.45 13.49-7.47 19.24-7.18 8.61-16.65 14.93-26.99 20.1-9.47 4.88-19.52 8.33-30.15 10.62-4.02 1.15-8.33 1.15-12.63 1.72-.86 0-1.44.29-1.72 1.15-2.01 7.18-3.45 14.07-3.45 21.82.29 4.31 1.15 8.61 3.16 12.92 2.87 6.6 8.04 10.34 15.22 11.48 9.19 1.72 18.09-.57 25.84-5.17 8.33-4.31 14.93-10.62 20.67-17.51 4.31-4.88 7.46-9.76 10.34-15.22.57-.86.86-1.44 1.44-2.3.29-.29 1.15-.86 1.43-.57s.86 1.15.57 1.43c0 1.15-.29 2.01-.57 3.16-2.3 4.88-5.46 8.9-8.33 12.92-5.46 6.89-11.77 12.63-18.66 18.09-7.47 5.46-16.08 9.47-25.27 10.62-10.91 1.15-20.96 0-29.86-6.03-7.47-4.88-11.48-11.77-12.92-20.1-.29-3.73-.29-7.18-.57-10.34.86-14.64 4.88-27.85 12.63-39.91Zm19.52 18.95c8.61-2.01 16.94-4.59 24.69-9.19 7.18-4.02 13.78-9.19 18.66-15.5 5.74-7.18 9.47-14.93 10.62-23.55.86-4.02 1.15-8.33-.29-12.35-.86-3.16-3.16-4.31-6.6-4.59-3.73-.29-7.18 1.15-10.34 3.16-7.75 4.88-14.64 11.48-20.67 18.38-6.03 7.46-10.91 15.79-15.5 23.83-4.02 6.89-7.47 13.49-9.76 20.96 3.16-.57 6.32-.57 9.19-1.15m107.95 51.68c22.39 0 45.08-24.4 54.55-42.78.57-1.44 1.72-1.72 3.16-1.15 1.15.29 1.72 1.72.86 3.16-2.3 3.73-4.02 7.75-6.32 11.2-13.21 18.38-32.44 35.89-56.28 35.89-6.89 0-13.78-1.44-19.81-4.59-19.24-10.05-17.51-35.6-11.77-53.12 10.91-33.88 41.63-70.63 79.82-66.61 15.79 1.44 20.96 20.96 10.91 32.16-2.87 3.73-12.06 9.48-17.8 9.48-1.43 0-2.58-.29-3.44-1.15-2.01-2.58 4.31-7.75 6.32-10.05 4.02-4.88 6.89-10.62 5.46-16.94-1.44-6.32-5.17-8.33-9.76-8.33-6.03 0-13.21 3.73-17.8 7.18-22.4 18.95-38.76 52.26-39.91 80.97-.57 17.23 9.48 24.69 21.82 24.69Zm210.74-122.6c16.08-8.61 39.91-7.18 45.08 15.79 4.88 31.01.57 62.59 4.02 93.6 16.94-22.39 59.72-64.6 54.55-93.31a14.56 14.56 0 0 0-4.02-7.46c-11.2-11.48 17.23-20.96 20.39-5.17 6.32 25.27-28.71 60.87-43.07 80.68l-31.01 37.04c-3.73 5.17-9.19 8.33-15.5 7.47-1.72 0-2.01-1.15-2.3-2.58-1.72-36.18 2.87-72.93-2.01-108.82-4.88-27.85-40.2-10.91-47.09 7.18-2.3-8.04 13.78-21.82 20.96-24.4Zm118.86 51.97c3.73-6.03 7.75-11.77 11.77-17.52 10.05-12.35 22.11-22.11 36.75-28.71 5.17-2.3 10.91-4.02 16.94-3.73 7.47 0 14.36 2.3 18.95 8.9 2.58 4.02 2.87 8.61 2.87 12.92-.29 7.18-3.45 13.49-7.47 19.24-7.18 8.61-16.65 14.93-26.99 20.1-9.47 4.88-19.52 8.33-30.15 10.62-4.02 1.15-8.33 1.15-12.63 1.72-.86 0-1.44.29-1.72 1.15-2.01 7.18-3.45 14.07-3.45 21.82.29 4.31 1.15 8.61 3.16 12.92 2.87 6.6 8.04 10.34 15.22 11.48 9.19 1.72 18.09-.57 25.84-5.17 8.33-4.31 14.93-10.62 20.67-17.51 4.31-4.88 7.46-9.76 10.34-15.22.57-.86.86-1.44 1.44-2.3.29-.29 1.15-.86 1.43-.57s.86 1.15.57 1.43c0 1.15-.29 2.01-.57 3.16-2.3 4.88-5.46 8.9-8.33 12.92-5.46 6.89-11.77 12.63-18.66 18.09-7.47 5.46-16.08 9.47-25.27 10.62-10.91 1.15-20.96 0-29.86-6.03-7.47-4.88-11.48-11.77-12.92-20.1-.29-3.73-.29-7.18-.57-10.34.86-14.64 4.88-27.85 12.63-39.91Zm19.53 18.95c8.61-2.01 16.94-4.59 24.69-9.19 7.18-4.02 13.78-9.19 18.66-15.5 5.74-7.18 9.47-14.93 10.62-23.55.86-4.02 1.15-8.33-.29-12.35-.86-3.16-3.16-4.31-6.6-4.59-3.73-.29-7.18 1.15-10.34 3.16-7.75 4.88-14.64 11.48-20.67 18.38-6.03 7.46-10.91 15.79-15.5 23.83-4.02 6.89-7.47 13.49-9.76 20.96 3.16-.57 6.32-.57 9.19-1.15M447.24 46.06v-3.01h28.8v3.01h-13.47l.79-.82v35.37h-3.53V45.24l.79.82zm39.47-3.01h3.53v17.03h19.77V43.05h3.44v37.56h-3.44V63.06h-19.77v17.55h-3.53zm43.43 37.55V43.04h22.62v3.01h-19.1V60.1h18v3.01h-18v14.41h19.1v3.07h-22.62ZM407.52 244.43c11.77-1.44 22.39-5.74 33.3-9.76 2.87-.57 6.03-.57 4.88 3.44-19.81 64.6-42.49 127.77-59.72 193.23-.29 2.01-.29 4.02.57 6.32 1.15 4.02 3.16 5.74 5.74 5.74 8.9 0 23.54-23.26 25.55-29.29.57-1.72 1.44-4.02 3.16-3.44 1.43.86 1.15 2.58.57 3.73-8.33 22.4-27.85 38.19-41.06 38.19-11.77 0-18.66-12.06-9.19-42.21 16.65-53.12 34.45-106.81 49.38-159.92-.29-2.87-2.3-3.73-4.88-3.73-3.73 0-8.61 1.43-11.2.86.57-1.72.86-2.87 2.87-3.16Zm135.69 55.17c-11.68 0-22.65-3.01-32.91-9.04s-18.57-14.64-24.93-25.85c-6.36-11.2-9.53-24.48-9.53-39.83s3.15-28.51 9.46-39.48 14.59-19.37 24.86-25.21c10.26-5.84 21.28-8.76 33.05-8.76s21.84 2.33 30.51 6.99c8.66 4.66 15.65 10.95 20.98 18.86 5.32 7.91 8.8 16.83 10.45 26.77s1.29 20.18-1.06 30.72h-92.52v-22.88h59.46l-6.5 4.24c.28-3.29.16-6.64-.35-10.03-.52-3.39-1.53-6.52-3.04-9.39s-3.65-5.18-6.43-6.92-6.33-2.61-10.66-2.61c-4.8 0-8.97 1.15-12.5 3.46s-6.26 5.65-8.19 10.03-2.89 9.72-2.89 16.03v17.8c0 5.93.85 11.07 2.54 15.4s4.21 7.7 7.56 10.1c3.34 2.4 7.56 3.6 12.64 3.6 4.14 0 7.77-.85 10.88-2.54 3.11-1.7 5.27-4.38 6.5-8.05h44.92c-1.41 8.66-4.87 16.53-10.38 23.59s-12.67 12.67-21.47 16.81c-8.81 4.14-18.95 6.22-30.44 6.22Zm190.9-7.61c-1.3-11.87 12.63-21.45 23.43-19.16 2.53-.21 4.99.1 7.22 1.05V98.53h-46.89v69.93c-2.9-3.93-6.28-7.21-10.13-9.8-7.53-5.06-16.64-7.6-27.35-7.6-11.87 0-22.58 3.14-32.13 9.41s-17.13 15.03-22.72 26.27c-5.6 11.24-8.39 24.38-8.39 39.43s2.94 28.63 8.83 40.16c5.88 11.53 13.87 20.5 23.95 26.92a60.4 60.4 0 0 0 19.27 8.03c.47-.93 1.31-1.74 2.61-2.3 8.36-3.57 17.85-31.68 29.63-22.67 5.7 4.36 4 13.48 3 19.54-.07.42-.17.82-.24 1.24.87-.52 1.74-1.08 2.6-1.67 6-4.15 11.01-10.2 15.06-18.11l5.13 20.93h6.14c0-.08-.02-.15-.02-.24.02-2.05.38-4.06 1-6.01m-16.24-59.31c0 5.02-1.25 9.65-3.76 13.89-2.51 4.25-5.77 7.65-9.77 10.2q-6 3.84-12.81 3.84c-5.69 0-10.66-1.49-14.91-4.49-4.25-2.99-7.5-7.09-9.77-12.3s-3.4-11.09-3.4-17.66 1.11-11.91 3.33-16.93 5.47-8.97 9.77-11.87c4.29-2.89 9.48-4.34 15.56-4.34 4.73 0 9.02 1.11 12.88 3.33s6.97 5.33 9.34 9.33c2.36 4 3.54 8.71 3.54 14.11v12.88Z"/>
<path d="M645.34 327.4c-1.44 0-3.16 0-3.16-2.01-.29-1.15 1.15-2.01 2.3-2.3 24.4-4.02 37.61-21.53 50.25-40.48.86-1.15 1.72-1.72 3.16-1.44 1.43.86 1.15 1.72.86 2.87-3.16 10.34-6.03 20.67-9.19 30.72-1.44 4.88-1.15 5.17 3.73 5.17h20.96c2.87.29 9.47-1.44 7.47 3.44-1.15 1.72-2.58 2.58-4.6 2.58-8.04.29-15.79.29-23.83.57-2.58.29-7.46-.57-8.61 2.87-10.05 33.02-20.96 65.46-30.43 98.77-2.58 10.91 1.43 15.22 7.18 15.22 4.31 0 10.05-2.58 14.93-6.6 6.89-5.46 12.63-12.35 18.09-18.95 1.15-1.15 2.58-3.73 4.59-2.01 2.3 1.72-2.58 6.03-3.44 8.04-10.34 12.35-24.98 28.71-42.49 28.71-9.48 0-18.09-4.88-19.52-15.79-1.15-6.32.29-12.63 2.3-18.38 9.19-30.43 19.52-60.58 27.85-91.02-6.32-.57-12.06 0-18.38 0Z"/>
<path d="M709.08 439.38c0-5.46.86-11.2 2.87-16.94 4.02-13.21 8.04-26.7 12.63-39.91 3.16-10.91 6.89-21.82 10.05-32.44.57-2.58.86-5.46.57-7.75-.29-3.16-2.87-4.59-5.74-2.87-2.3 1.15-5.17 3.16-7.47 5.46-3.45 4.02-6.6 8.33-9.76 12.35-1.15 1.72-2.58 2.58-3.16 2.01-1.15-1.44-.57-2.58 0-3.44 5.74-12.06 18.66-28.14 33.31-28.14 6.32 0 11.77 5.46 11.77 11.77 0 5.46-1.72 11.2-3.16 16.37-4.02 13.49-8.61 26.7-12.63 40.2-3.44 11.77-6.89 23.26-10.05 35.03-.57 2.3-.57 4.59-.86 6.89-.86 5.74 4.88 8.04 8.9 6.32 10.62-5.74 18.09-14.64 24.12-25.27.57-.86.86-2.3 2.3-1.43 1.15.57.86 1.72.57 3.16-4.31 10.91-15.22 24.4-25.27 29.86-4.02 2.58-8.33 4.02-12.63 3.73-9.47.57-16.08-5.74-16.37-14.93Zm31.87-141.84c-2.01-4.88-.86-9.47 2.58-13.49 2.87-3.16 6.03-5.17 10.05-5.17h1.44c6.6.86 10.62 6.6 10.05 13.21-.57 5.46-5.17 10.34-10.62 12.06-.57 0-1.44.29-2.58.29-4.88-.29-9.19-2.3-10.91-6.89Z"/>
</g>

</svg>