<svg xmlns="http://www.w3.org/2000/svg" viewBox="0 0 950 191" class="img-logo">
<path fill="#fff" d="M48.264 30V5.01h-8.875V2.754h20.24v2.258h-8.874V30zm15.647 0V2.753h2.491V14.82h16.504V2.753h2.491V30h-2.49V17.077H66.401V30zm29.271 0V2.753h15.686v2.258H95.673v9.809h12.261v2.257h-12.26v10.665h13.194V30zM.28 44.4h31.06l16.13 62.21-1.219-4.698L59.33 49.87h28L100.704 101l14.626-56.6H145l-30.22 91.32h-29.3L72.64 90l-12.19 45.72H30.78zm190.23-2.97c7.73 0 14.34 1.53 20.03 4.59s10.28 7.19 13.77 12.38 5.78 11.05 6.86 17.57.85 13.24-.7 20.17h-54.899l.004.42c.055 3.633.613 6.8 1.665 9.49 1.11 2.84 2.77 5.05 4.96 6.63s4.96 2.36 8.3 2.36c2.72 0 5.1-.56 7.14-1.67s3.46-2.87 4.27-5.28h29.48q-1.395 8.535-6.81 15.48c-3.61 4.63-8.31 8.31-14.09 11.03q-8.67 4.08-19.98 4.08l-.01.01c-7.67 0-14.87-1.98-21.6-5.93-6.74-3.96-12.19-9.61-16.36-16.97s-6.26-16.07-6.26-26.15 2.07-18.71 6.21-25.91 9.58-12.72 16.32-16.55 13.97-5.75 21.7-5.75m.55 23.47c-3.15 0-5.89.76-8.21 2.27-2.32 1.52-4.11 3.71-5.38 6.58q-1.36 3.076-1.745 7.126l-.021.238H176v.006h28.642c.137-.66-.032-1.58-.372-3.8a19.9 19.9 0 0 0-1.99-6.17c-.99-1.88-2.4-3.4-4.22-4.54s-4.16-1.71-7-1.71m295.49-5.59c14.28 0 25.96 9.09 25.4 29.85-.74 25.96-20.77 53.77-48.39 53.77-15.57 0-28-10.57-27.07-31.15 1.48-32.26 28.74-52.47 50.06-52.47m-47.08-41.73-.02.01c8.16 1.85 10.38-7.97 12.79-6.3.19.56.56 1.48.19 2.22-5.93 13.72-11.31 28-16.87 42.09-.56 1.67-1.67 4.08-3.89 3.34-.93-.19-1.48-1.11-1.3-2.6 1.85-9.64 4.26-19.65 1.85-29.3-26.51-50.8-87.52 21.32-90.85 56.37-6.12 66.56 57.29 65.82 82.14 16.5.74-1.3 1.67-1.48 2.6-.93.93.37.93 1.11.56 2.41-10.57 23.36-33.75 42.27-59.7 39.86-106.24-9.64-9.64-180.41 72.5-123.67m44.48 46.36c-2.97 0-5.93.93-8.9 2.78-13.54 8.16-31.89 39.49-25.77 60.63 2.59 8.72 8.53 13.16 14.65 13.16v.01c2.22 0 4.45-.56 6.49-1.67 19.28-10.76 28.74-39.12 28.18-55.63-.56-12.79-7.05-19.28-14.65-19.28M338.27 7.77v28.89q-.84 1.11-1.65 2.25v.01c-18.03 16.14-26.83 41.66-23.16 65.37 2.01 12.94 8.07 22.79 16.07 31.43h-15.45l-3.29-13.41c-2.6 5.07-5.81 8.94-9.65 11.6q-6.9 4.77-14.88 4.77c-7.92 0-15.1-2.06-21.56-6.17-6.46-4.1-11.57-9.85-15.34-17.24-3.78-7.39-5.66-16.09-5.66-25.73s1.8-18.06 5.38-25.26c3.59-7.2 8.44-12.81 14.56-16.83q9.18-6.03 20.58-6.03c6.86 0 12.7 1.62 17.52 4.87 2.47 1.66 4.63 3.76 6.49 6.28V7.77zm-46.55 60.55c-3.9 0-7.22.93-9.97 2.78s-4.84 4.39-6.26 7.6c-1.42 3.22-2.13 6.65-2.13 10.85s.73 7.97 2.18 11.31 3.54 5.97 6.26 7.88c2.72 1.92 5.9 2.88 9.55 2.88 2.91 0 5.64-.82 8.21-2.46s4.65-3.82 6.26-6.54 2.41-5.69 2.41-8.9h-.01v-8.25c0-3.46-.76-6.47-2.27-9.04-1.52-2.56-3.51-4.56-5.98-5.98q-3.705-2.13-8.25-2.13M562.95 2.77c-3.997 13.038-8.175 25.984-12.371 38.914l-3.777 11.633c-7.964 24.56-15.814 49.135-22.422 74.233-.19 1.3-.19 2.6.37 4.08.74 2.6 2.04 3.71 3.71 3.71 5.75 0 15.2-15.02 16.5-18.91.37-1.11.93-2.59 2.04-2.22.93.56.74 1.67.37 2.41-5.38 14.46-17.99 24.66-26.51 24.66-7.6 0-12.05-7.79-5.93-27.26 10.76-34.3 22.25-68.97 31.89-103.28-.19-1.85-1.48-2.41-3.15-2.41-2.41 0-5.56.93-7.23.56.37-1.11.56-1.85 1.85-2.04v-.01c7.6-.93 14.46-3.71 21.51-6.3 1.85-.37 3.89-.37 3.15 2.23m37.26 0c-3.997 13.038-8.175 25.984-12.371 38.914l-3.777 11.633c-7.964 24.56-15.814 49.135-22.422 74.233-.19 1.3-.19 2.6.37 4.08.74 2.6 2.04 3.71 3.71 3.71 5.75 0 15.2-15.02 16.5-18.91.37-1.11.93-2.59 2.04-2.22.93.56.74 1.67.37 2.41-5.38 14.46-17.99 24.66-26.51 24.66-7.6 0-12.05-7.79-5.93-27.26 10.76-34.3 22.25-68.97 31.89-103.28-.19-1.85-1.48-2.41-3.15-2.41-2.41 0-5.56.93-7.23.56.37-1.11.56-1.85 1.85-2.04v-.01c7.6-.93 14.46-3.71 21.51-6.3 1.85-.37 3.89-.37 3.15 2.23m40.42 56.54c4.82 0 9.27 1.48 12.24 5.75 1.67 2.6 1.85 5.56 1.85 8.34-.19 4.63-2.22 8.71-4.82 12.42-4.64 5.56-10.76 9.64-17.43 12.98-6.12 3.15-12.61 5.38-19.47 6.86-2.6.74-5.38.74-8.16 1.11-.56 0-.93.19-1.11.74-1.3 4.63-2.23 9.09-2.23 14.09.19 2.78.74 5.56 2.04 8.34 1.85 4.26 5.19 6.67 9.83 7.42 5.93 1.11 11.68-.37 16.69-3.34 5.38-2.78 9.64-6.86 13.35-11.31 2.78-3.15 4.82-6.3 6.68-9.83.37-.56.56-.93.93-1.48.19-.19.74-.56.93-.37s.56.74.37.93c0 .74-.19 1.3-.37 2.04-1.48 3.15-3.52 5.75-5.38 8.34-3.52 4.45-7.6 8.16-12.05 11.68-4.82 3.52-10.38 6.12-16.32 6.86-7.05.74-13.53 0-19.28-3.89-4.82-3.15-7.42-7.6-8.34-12.98-.19-2.41-.19-4.63-.37-6.67.56-9.46 3.15-17.99 8.16-25.77h-.01c2.41-3.89 5.01-7.6 7.6-11.31 6.49-7.97 14.28-14.28 23.73-18.54 3.34-1.48 7.05-2.6 10.94-2.41m-5.94 4.46c-5.01 3.15-9.46 7.42-13.35 11.87-3.89 4.82-7.05 10.2-10.01 15.39-2.6 4.45-4.82 8.71-6.3 13.53 2.04-.37 4.08-.37 5.93-.74v-.01c5.56-1.3 10.94-2.97 15.95-5.93 4.64-2.6 8.9-5.93 12.05-10.01 3.71-4.64 6.12-9.64 6.86-15.2.56-2.6.74-5.38-.19-7.97-.56-2.04-2.04-2.78-4.26-2.97-2.41-.19-4.64.74-6.68 2.04m45.99 73.41c14.46 0 29.11-15.76 35.23-27.63.37-.93 1.11-1.11 2.04-.74.74.19 1.11 1.11.56 2.04-1.48 2.41-2.6 5.01-4.08 7.23-8.53 11.87-20.95 23.18-36.34 23.18-4.45 0-8.9-.93-12.79-2.97-12.42-6.49-11.31-22.99-7.6-34.3 7.05-21.88 26.88-45.61 51.55-43.02 10.2.93 13.53 13.53 7.05 20.77-1.85 2.41-7.79 6.12-11.5 6.12-.93 0-1.67-.19-2.22-.74-1.3-1.67 2.78-5.01 4.08-6.49 2.6-3.15 4.45-6.86 3.52-10.94s-3.34-5.38-6.3-5.38c-3.89 0-8.53 2.41-11.5 4.63-14.46 12.24-25.03 33.75-25.77 52.29-.37 11.13 6.12 15.95 14.09 15.95zm110.89-76.57c4.08 0 7.6 3.52 7.6 7.6 0 3.52-1.11 7.23-2.04 10.57-2.6 8.72-5.56 17.24-8.16 25.96-2.22 7.6-4.45 15.02-6.49 22.62-.37 1.48-.37 2.97-.56 4.45-.56 3.71 3.15 5.19 5.75 4.08 6.86-3.71 11.68-9.46 15.57-16.32q.075-.116.144-.245l.091-.171c.26-.486.534-.939 1.245-.514.74.37.56 1.11.37 2.04-2.78 7.05-9.83 15.76-16.32 19.28-2.6 1.67-5.38 2.6-8.16 2.41-6.12.37-10.38-3.71-10.57-9.64l.02.01c0-3.52.56-7.23 1.85-10.94 2.6-8.53 5.19-17.24 8.16-25.77 2.04-7.05 4.45-14.09 6.49-20.95.37-1.67.56-3.52.37-5.01-.19-2.04-1.85-2.97-3.71-1.85-1.48.74-3.34 2.04-4.82 3.52-2.22 2.6-4.26 5.38-6.3 7.97-.74 1.11-1.67 1.67-2.04 1.3-.74-.93-.37-1.67 0-2.23 3.71-7.79 12.05-18.17 21.51-18.17m-28.75-30.04c.93.56.74 1.11.56 1.85-2.04 6.68-3.89 13.35-5.93 19.84-.91 3.083-.748 3.33 2.213 3.34h13.727c.524.054 1.241.003 1.971-.027l.292-.01c1.753-.052 3.44.117 2.557 2.257-.74 1.11-1.67 1.67-2.97 1.67-5.19.19-10.2.19-15.39.37-1.67.19-4.82-.37-5.56 1.85-6.49 21.32-13.54 42.28-19.65 63.78-1.67 7.05.93 9.83 4.63 9.83 2.78 0 6.49-1.67 9.64-4.27 4.45-3.52 8.16-7.97 11.68-12.24.197-.197.408-.46.636-.72l.174-.193c.591-.631 1.293-1.127 2.16-.387 1.48 1.11-1.67 3.89-2.22 5.19-6.68 7.97-16.13 18.54-27.44 18.54-6.12 0-11.68-3.15-12.61-10.2-.74-4.08.19-8.16 1.48-11.87 1.744-5.78 3.553-11.543 5.375-17.3l2.188-6.908c3.646-11.508 7.258-23.007 10.417-34.572-4.08-.37-7.79 0-11.87 0l.01.03h-.236c-.871-.009-1.804-.108-1.804-1.3-.19-.74.74-1.3 1.48-1.48 13.011-2.147 21.094-10.23 28.11-19.866l.59-.818a202 202 0 0 0 3.75-5.456c.56-.74 1.11-1.11 2.04-.93m131.47 29.67c4.08 16.32-18.54 39.31-27.81 52.1-6.68 7.97-13.35 15.94-20.03 23.92-2.41 3.34-5.93 5.38-10.01 4.82-1.11 0-1.3-.74-1.48-1.67-.361-7.606-.291-15.25-.141-22.903l.068-3.28.107-4.92c.279-13.12.424-26.23-1.334-39.167-3.15-17.99-25.96-7.05-30.41 4.63-1.48-5.19 8.9-14.09 13.53-15.76 10.38-5.56 25.77-4.64 29.11 10.2 3.15 20.03.37 40.42 2.6 60.45 10.94-14.46 38.57-41.72 35.23-60.26a9.5 9.5 0 0 0-2.59-4.82c-7.23-7.42 11.12-13.54 13.16-3.34m41.53-.93c4.82 0 9.27 1.48 12.24 5.75 1.67 2.6 1.85 5.56 1.85 8.34-.19 4.63-2.22 8.71-4.82 12.42-4.64 5.56-10.76 9.64-17.43 12.98-6.12 3.15-12.61 5.38-19.47 6.86-2.6.74-5.38.74-8.16 1.11-.56 0-.93.19-1.11.74-1.3 4.63-2.23 9.09-2.23 14.09.19 2.78.74 5.56 2.04 8.34 1.85 4.26 5.19 6.67 9.83 7.42 5.93 1.11 11.68-.37 16.69-3.34 5.38-2.78 9.64-6.86 13.35-11.31 2.78-3.15 4.82-6.3 6.68-9.83.37-.56.56-.93.93-1.48.19-.19.74-.56.93-.37s.56.74.37.93c0 .74-.19 1.3-.37 2.04-1.48 3.15-3.52 5.75-5.38 8.34-3.52 4.45-7.6 8.16-12.05 11.68-4.82 3.52-10.38 6.12-16.32 6.86-7.05.74-13.53 0-19.28-3.89-4.82-3.15-7.42-7.6-8.34-12.98-.19-2.41-.19-4.63-.37-6.67.56-9.46 3.15-17.99 8.16-25.77h-.01c2.41-3.89 5.01-7.6 7.6-11.31 6.49-7.97 14.28-14.28 23.73-18.54 3.34-1.48 7.05-2.6 10.94-2.41m-5.93 4.46c-5.01 3.15-9.46 7.42-13.35 11.87-3.89 4.82-7.05 10.2-10.01 15.39-2.6 4.45-4.82 8.71-6.3 13.53 2.04-.37 4.08-.37 5.93-.74v-.01c5.56-1.3 10.94-2.97 15.95-5.93 4.64-2.6 8.9-5.93 12.05-10.01 3.71-4.64 6.12-9.64 6.86-15.2.56-2.6.74-5.38-.19-7.97-.56-2.04-2.04-2.78-4.26-2.97-2.41-.19-4.64.74-6.68 2.04M799.73 29.08c4.26.56 6.86 4.26 6.49 8.53-.37 3.52-3.34 6.67-6.86 7.79-.37 0-.93.19-1.67.19-3.15-.19-5.93-1.48-7.05-4.45-1.3-3.15-.56-6.12 1.67-8.72 1.85-2.04 3.89-3.34 6.49-3.34zM299.797 190l-8.408-27.247h2.491l7.28 23.432 7.083-23.432h2.491l6.929 23.432 7.434-23.432h2.491L318.986 190h-2.724l-6.773-23.082L302.52 190zm32.073 0v-27.247h15.686v2.258h-13.195v9.809h12.261v2.257h-12.26v10.665h13.194V190zm23.082 0v-27.247h8.135q3.697 0 6.54 1.732 2.84 1.733 4.456 4.808 1.615 3.074 1.615 7.084 0 3.97-1.615 7.045-1.616 3.075-4.457 4.826-2.841 1.752-6.539 1.752zm2.491-2.258h5.644a9 9 0 0 0 3.931-.875 10.2 10.2 0 0 0 3.231-2.453 11.6 11.6 0 0 0 2.18-3.639q.778-2.062.778-4.398t-.778-4.399a11.6 11.6 0 0 0-2.18-3.64 10.2 10.2 0 0 0-3.23-2.451 9 9 0 0 0-3.932-.876h-5.644zM381.537 190v-27.247h8.135q3.697 0 6.54 1.732 2.84 1.733 4.456 4.808 1.615 3.074 1.615 7.084 0 3.97-1.615 7.045-1.616 3.075-4.457 4.826Q393.37 190 389.672 190zm2.491-2.258h5.644a9 9 0 0 0 3.931-.875 10.2 10.2 0 0 0 3.23-2.453 11.6 11.6 0 0 0 2.18-3.639q.78-2.062.78-4.398t-.78-4.399a11.6 11.6 0 0 0-2.18-3.64 10.2 10.2 0 0 0-3.23-2.451 9 9 0 0 0-3.931-.876h-5.644zM408.122 190v-27.247h2.491V190zm10.276 0v-27.247h2.49l17.36 23.238v-23.238h2.492V190h-2.491l-17.36-23.276V190zm42.31.467q-4.125 0-7.318-1.81a13.1 13.1 0 0 1-5.001-4.982q-1.81-3.172-1.81-7.26 0-4.164 1.81-7.337a13.1 13.1 0 0 1 5.001-4.982q3.192-1.81 7.318-1.81 2.062 0 4.126.7 2.063.702 3.795 1.928t2.783 2.822l-1.907 1.44q-.856-1.362-2.277-2.414a11.5 11.5 0 0 0-3.114-1.634 10.4 10.4 0 0 0-3.406-.584q-3.386 0-6.014 1.518a10.9 10.9 0 0 0-4.126 4.184q-1.498 2.666-1.498 6.17 0 3.425 1.498 6.091a10.9 10.9 0 0 0 4.126 4.184q2.627 1.519 6.014 1.519 2.841 0 5.06-1.207a8.87 8.87 0 0 0 3.484-3.367q1.265-2.16 1.265-4.963h-6.85v-2.296h9.263v2.296q0 3.425-1.557 6.092t-4.32 4.184-6.345 1.518M488.11 190v-27.247h8.369q2.569 0 4.554 1.07a7.77 7.77 0 0 1 3.095 2.978q1.11 1.908 1.109 4.399 0 2.452-.993 4.36-.992 1.906-2.724 2.996t-3.99 1.09H490.6V190zm2.491-12.65h6.929q2.296 0 3.776-1.713 1.479-1.712 1.479-4.437 0-2.764-1.771-4.476-1.772-1.713-4.535-1.713h-5.878zM510.297 190v-27.247h2.491v24.99h13.195V190zm16.465 0 11.21-27.247h2.569L551.75 190h-2.647l-3.464-8.446h-12.767L529.409 190zm7.006-10.704h10.977l-5.489-13.39zM556.032 190v-27.247h2.492l17.36 23.238v-23.238h2.49V190h-2.49l-17.36-23.276V190zm30.128 0v-27.247h2.49l17.36 23.238v-23.238h2.492V190h-2.491l-17.36-23.276V190zm30.127 0v-27.247h2.49V190zm10.276 0v-27.247h2.49l17.36 23.238v-23.238h2.492V190h-2.491l-17.36-23.276V190zm42.31.467q-4.126 0-7.318-1.81a13.1 13.1 0 0 1-5.002-4.982q-1.81-3.172-1.81-7.26 0-4.164 1.81-7.337a13.1 13.1 0 0 1 5.002-4.982q3.192-1.81 7.318-1.81 2.062 0 4.126.7 2.063.702 3.795 1.928t2.783 2.822l-1.907 1.44q-.856-1.362-2.278-2.414a11.5 11.5 0 0 0-3.113-1.634 10.4 10.4 0 0 0-3.406-.584q-3.386 0-6.014 1.518a10.9 10.9 0 0 0-4.126 4.184q-1.499 2.666-1.499 6.17 0 3.425 1.5 6.091a10.9 10.9 0 0 0 4.125 4.184q2.627 1.519 6.014 1.519 2.84 0 5.06-1.207a8.87 8.87 0 0 0 3.484-3.367q1.265-2.16 1.265-4.963h-6.851v-2.296h9.264v2.296q0 3.425-1.557 6.092t-4.32 4.184-6.345 1.518m27.402-.467v-27.247h8.135q3.698 0 6.54 1.732 2.841 1.733 4.456 4.808t1.616 7.084q0 3.97-1.616 7.045-1.615 3.075-4.457 4.826Q708.108 190 704.41 190zm2.491-2.258h5.644a9 9 0 0 0 3.932-.875 10.2 10.2 0 0 0 3.23-2.453 11.6 11.6 0 0 0 2.18-3.639q.778-2.062.778-4.398t-.778-4.399a11.6 11.6 0 0 0-2.18-3.64 10.2 10.2 0 0 0-3.23-2.451 9 9 0 0 0-3.932-.876h-5.644zm35.343 2.725q-3.853 0-6.831-1.79t-4.67-4.983q-1.694-3.192-1.694-7.317 0-4.166 1.674-7.337 1.673-3.173 4.612-4.963t6.792-1.79q3.855 0 6.812 1.81t4.612 4.981 1.655 7.299q0 4.126-1.655 7.317-1.654 3.192-4.573 4.983-2.918 1.79-6.734 1.79m0-2.257q3.075 0 5.43-1.519t3.698-4.184q1.343-2.665 1.343-6.13t-1.363-6.13q-1.362-2.667-3.736-4.185t-5.489-1.518q-3.075 0-5.468 1.518-2.394 1.518-3.757 4.184t-1.362 6.13 1.362 6.131 3.795 4.184q2.433 1.519 5.547 1.519m18.8 1.79v-27.247h2.491l17.36 23.238v-23.238h2.492V190h-2.492l-17.36-23.276V190zm30.127 0v-27.247h15.687v2.258h-13.195v9.809h12.26v2.257h-12.26v10.665h13.195V190zm32.813 0v-27.247h8.369q2.763 0 4.71.857 1.946.855 2.997 2.49t1.05 3.932q0 2.14-.933 3.698-.935 1.557-2.647 2.452 2.101.974 3.23 2.627 1.13 1.654 1.13 3.912 0 2.297-1.013 3.932t-2.9 2.49-4.573.857zm2.491-2.297h6.929q2.841 0 4.437-1.323t1.596-3.659q0-2.568-1.868-3.99-1.87-1.42-5.216-1.42h-5.878zm0-12.689h6.929q2.49 0 3.873-1.323 1.38-1.323 1.381-3.659 0-2.413-1.654-3.717t-4.651-1.304h-5.878zM839.593 190v-27.247h15.686v2.258h-13.195v9.809h12.26v2.257h-12.26v10.665h13.195V190zm28.453 0v-24.99h-8.875v-2.257h20.24v2.258h-8.874V190zm21.019 0v-24.99h-8.875v-2.257h20.24v2.258h-8.874V190zm15.647 0v-27.247H920.4v2.258h-13.196v9.809h12.261v2.257h-12.26v10.665h13.195V190zm23.082 0v-27.247h8.369q2.568 0 4.554 1.032 1.985 1.031 3.094 2.841 1.11 1.81 1.11 4.185 0 2.685-1.596 4.67-1.597 1.986-4.126 2.842L946.01 190h-2.725l-6.54-11.171a4 4 0 0 1-.544.039h-5.917V190zm2.491-13.429h6.54q1.556 0 2.821-.74a5.7 5.7 0 0 0 2.044-2.043q.778-1.305.778-2.977 0-2.57-1.77-4.185-1.772-1.615-4.535-1.615h-5.878z"/>
</svg>