<svg xmlns="http://www.w3.org/2000/svg" viewBox="0 0 1000 170">

<g fill="#fff">
<path d="M16.2 19.17v-1.95h18.69v1.95h-8.74l.51-.53v22.95h-2.29V18.64l.51.53zM41.82 17.22h2.29v11.05h12.83V17.22h2.23v24.37h-2.23V30.2H44.11v11.39h-2.29zM70 41.59V17.22h14.68v1.95H72.29v9.12h11.68v1.95H72.29v9.35h12.39v1.99H70ZM22.16 57.91h31.06l16.13 62.21h-2.6l14.46-56.74h28l14.65 56.92h-2.78l16.13-62.39h29.67l-30.22 91.32h-29.3L92.25 95.55h4.54l-14.46 53.68H52.66zM220.38 152.19c-7.67 0-14.87-1.98-21.6-5.93-6.74-3.96-12.19-9.61-16.36-16.97s-6.26-16.07-6.26-26.15 2.07-18.71 6.21-25.91 9.58-12.72 16.32-16.55 13.97-5.75 21.7-5.75 14.34 1.53 20.03 4.59 10.28 7.19 13.77 12.38 5.78 11.05 6.86 17.57.85 13.24-.7 20.17h-60.73V94.62h39.03l-4.27 2.78c.19-2.16.11-4.36-.23-6.58a19.9 19.9 0 0 0-1.99-6.17c-.99-1.88-2.4-3.4-4.22-4.54s-4.16-1.71-7-1.71c-3.15 0-5.89.76-8.21 2.27-2.32 1.52-4.11 3.71-5.38 6.58s-1.9 6.38-1.9 10.52v11.68c0 3.89.56 7.26 1.67 10.1s2.77 5.05 4.96 6.63 4.96 2.36 8.3 2.36c2.72 0 5.1-.56 7.14-1.67s3.46-2.87 4.27-5.28h29.48q-1.395 8.535-6.81 15.48c-3.62 4.64-8.31 8.31-14.09 11.03q-8.67 4.08-19.98 4.08ZM370.5 52.42q.81-1.14 1.65-2.25V21.28h-30.04v44.8c-1.86-2.52-4.02-4.62-6.49-6.28-4.82-3.25-10.66-4.87-17.52-4.87q-11.4 0-20.58 6.03c-6.12 4.02-10.97 9.63-14.56 16.83-3.58 7.2-5.38 15.62-5.38 25.26s1.88 18.34 5.66 25.73c3.77 7.39 8.88 13.14 15.34 17.24 6.46 4.11 13.64 6.17 21.56 6.17q7.98 0 14.88-4.77c3.84-2.66 7.05-6.53 9.65-11.6l3.29 13.41h15.45c-8-8.64-14.06-18.49-16.07-31.43-3.67-23.71 5.13-49.23 23.16-65.37Zm-28.39 54.81c0 3.21-.8 6.18-2.41 8.9s-3.69 4.9-6.26 6.54-5.3 2.46-8.21 2.46c-3.65 0-6.83-.96-9.55-2.88-2.72-1.91-4.81-4.54-6.26-7.88s-2.18-7.11-2.18-11.31.71-7.63 2.13-10.85c1.42-3.21 3.51-5.75 6.26-7.6s6.07-2.78 9.97-2.78q4.545 0 8.25 2.13c2.47 1.42 4.46 3.42 5.98 5.98 1.51 2.57 2.27 5.58 2.27 9.04v8.25Z"/>

<path d="M473.33 31.1c8.16 1.85 10.38-7.97 12.79-6.3.19.56.56 1.48.19 2.22-5.93 13.72-11.31 28-16.87 42.09-.56 1.67-1.67 4.08-3.89 3.34-.93-.19-1.48-1.11-1.3-2.6 1.85-9.64 4.26-19.65 1.85-29.3-26.51-50.8-87.52 21.32-90.85 56.37-6.12 66.56 57.29 65.82 82.14 16.5.74-1.3 1.67-1.48 2.6-.93.93.37.93 1.11.56 2.41-10.57 23.36-33.75 42.27-59.7 39.86-106.24-9.64-9.64-180.41 72.5-123.67ZM497.44 156.44c-15.57 0-28-10.57-27.07-31.15 1.48-32.26 28.74-52.47 50.06-52.47 14.28 0 25.96 9.09 25.4 29.85-.74 25.96-20.77 53.77-48.39 53.77m.37-2.41c2.22 0 4.45-.56 6.49-1.67 19.28-10.76 28.74-39.12 28.18-55.63-.56-12.79-7.05-19.28-14.65-19.28-2.97 0-5.93.93-8.9 2.78-13.54 8.16-31.89 39.49-25.77 60.63 2.59 8.72 8.53 13.16 14.65 13.16ZM572.17 20.34c7.6-.93 14.46-3.71 21.51-6.3 1.85-.37 3.89-.37 3.15 2.23-12.79 41.72-27.44 82.51-38.57 124.78-.19 1.3-.19 2.6.37 4.08.74 2.6 2.04 3.71 3.71 3.71 5.75 0 15.2-15.02 16.5-18.91.37-1.11.93-2.59 2.04-2.22.93.56.74 1.67.37 2.41-5.38 14.46-17.99 24.66-26.51 24.66-7.6 0-12.05-7.79-5.93-27.26 10.76-34.3 22.25-68.97 31.89-103.28-.19-1.85-1.48-2.41-3.15-2.41-2.41 0-5.56.93-7.23.56.37-1.11.56-1.85 1.85-2.04ZM609.43 20.34c7.6-.93 14.46-3.71 21.51-6.3 1.85-.37 3.89-.37 3.15 2.23-12.79 41.72-27.44 82.51-38.57 124.78-.19 1.3-.19 2.6.37 4.08.74 2.6 2.04 3.71 3.71 3.71 5.75 0 15.2-15.02 16.5-18.91.37-1.11.93-2.59 2.04-2.22.93.56.74 1.67.37 2.41-5.38 14.46-17.99 24.66-26.51 24.66-7.6 0-12.05-7.79-5.93-27.26 10.76-34.3 22.25-68.97 31.89-103.28-.19-1.85-1.48-2.41-3.15-2.41-2.41 0-5.56.93-7.23.56.37-1.11.56-1.85 1.85-2.04ZM632.24 105.08c2.41-3.89 5.01-7.6 7.6-11.31 6.49-7.97 14.28-14.28 23.73-18.54 3.34-1.48 7.05-2.6 10.94-2.41 4.82 0 9.27 1.48 12.24 5.75 1.67 2.6 1.85 5.56 1.85 8.34-.19 4.63-2.22 8.71-4.82 12.42-4.64 5.56-10.76 9.64-17.43 12.98-6.12 3.15-12.61 5.38-19.47 6.86-2.6.74-5.38.74-8.16 1.11-.56 0-.93.19-1.11.74-1.3 4.63-2.23 9.09-2.23 14.09.19 2.78.74 5.56 2.04 8.34 1.85 4.26 5.19 6.67 9.83 7.42 5.93 1.11 11.68-.37 16.69-3.34 5.38-2.78 9.64-6.86 13.35-11.31 2.78-3.15 4.82-6.3 6.68-9.83.37-.56.56-.93.93-1.48.19-.19.74-.56.93-.37s.56.74.37.93c0 .74-.19 1.3-.37 2.04-1.48 3.15-3.52 5.75-5.38 8.34-3.52 4.45-7.6 8.16-12.05 11.68-4.82 3.52-10.38 6.12-16.32 6.86-7.05.74-13.53 0-19.28-3.89-4.82-3.15-7.42-7.6-8.34-12.98-.19-2.41-.19-4.63-.37-6.67.56-9.46 3.15-17.99 8.16-25.77Zm12.61 12.24c5.56-1.3 10.94-2.97 15.95-5.93 4.64-2.6 8.9-5.93 12.05-10.01 3.71-4.64 6.12-9.64 6.86-15.2.56-2.6.74-5.38-.19-7.97-.56-2.04-2.04-2.78-4.26-2.97-2.41-.19-4.64.74-6.68 2.04-5.01 3.15-9.46 7.42-13.35 11.87-3.89 4.82-7.05 10.2-10.01 15.39-2.6 4.45-4.82 8.71-6.3 13.53 2.04-.37 4.08-.37 5.93-.74ZM714.56 150.69c14.46 0 29.11-15.76 35.23-27.63.37-.93 1.11-1.11 2.04-.74.74.19 1.11 1.11.56 2.04-1.48 2.41-2.6 5.01-4.08 7.23-8.53 11.87-20.95 23.18-36.34 23.18-4.45 0-8.9-.93-12.79-2.97-12.42-6.49-11.31-22.99-7.6-34.3 7.05-21.88 26.88-45.61 51.55-43.02 10.2.93 13.53 13.53 7.05 20.77-1.85 2.41-7.79 6.12-11.5 6.12-.93 0-1.67-.19-2.22-.74-1.3-1.67 2.78-5.01 4.08-6.49 2.6-3.15 4.45-6.86 3.52-10.94s-3.34-5.38-6.3-5.38c-3.89 0-8.53 2.41-11.5 4.63-14.46 12.24-25.03 33.75-25.77 52.29-.37 11.13 6.12 15.95 14.09 15.95ZM762.77 73.93c-.93 0-2.04 0-2.04-1.3-.19-.74.74-1.3 1.48-1.48 15.76-2.6 24.29-13.91 32.45-26.14.56-.74 1.11-1.11 2.04-.93.93.56.74 1.11.56 1.85-2.04 6.68-3.89 13.35-5.93 19.84-.93 3.15-.74 3.34 2.41 3.34h13.53c1.85.19 6.12-.93 4.82 2.22-.74 1.11-1.67 1.67-2.97 1.67-5.19.19-10.2.19-15.39.37-1.67.19-4.82-.37-5.56 1.85-6.49 21.32-13.54 42.28-19.65 63.78-1.67 7.05.93 9.83 4.63 9.83 2.78 0 6.49-1.67 9.64-4.27 4.45-3.52 8.16-7.97 11.68-12.24.74-.74 1.67-2.41 2.97-1.3 1.48 1.11-1.67 3.89-2.22 5.19-6.68 7.97-16.13 18.54-27.44 18.54-6.12 0-11.68-3.15-12.61-10.2-.74-4.08.19-8.16 1.48-11.87 5.93-19.65 12.61-39.12 17.98-58.78-4.08-.37-7.79 0-11.87 0Z"/>

<path d="M803.94 146.24c0-3.52.56-7.23 1.85-10.94 2.6-8.53 5.19-17.24 8.16-25.77 2.04-7.05 4.45-14.09 6.49-20.95.37-1.67.56-3.52.37-5.01-.19-2.04-1.85-2.97-3.71-1.85-1.48.74-3.34 2.04-4.82 3.52-2.22 2.6-4.26 5.38-6.3 7.97-.74 1.11-1.67 1.67-2.04 1.3-.74-.93-.37-1.67 0-2.23 3.71-7.79 12.05-18.17 21.51-18.17 4.08 0 7.6 3.52 7.6 7.6 0 3.52-1.11 7.23-2.04 10.57-2.6 8.72-5.56 17.24-8.16 25.96-2.22 7.6-4.45 15.02-6.49 22.62-.37 1.48-.37 2.97-.56 4.45-.56 3.71 3.15 5.19 5.75 4.08 6.86-3.71 11.68-9.46 15.57-16.32.37-.56.56-1.48 1.48-.93.74.37.56 1.11.37 2.04-2.78 7.05-9.83 15.76-16.32 19.28-2.6 1.67-5.38 2.6-8.16 2.41-6.12.37-10.38-3.71-10.57-9.64Zm20.58-91.59c-1.3-3.15-.56-6.12 1.67-8.72 1.85-2.04 3.89-3.34 6.49-3.34h.93c4.26.56 6.86 4.26 6.49 8.53-.37 3.52-3.34 6.67-6.86 7.79-.37 0-.93.19-1.67.19-3.15-.19-5.93-1.48-7.05-4.45M850.66 71.52c10.38-5.56 25.77-4.64 29.11 10.2 3.15 20.03.37 40.42 2.6 60.45 10.94-14.46 38.57-41.72 35.23-60.26a9.5 9.5 0 0 0-2.59-4.82c-7.23-7.42 11.12-13.54 13.16-3.34 4.08 16.32-18.54 39.31-27.81 52.1-6.68 7.97-13.35 15.94-20.03 23.92-2.41 3.34-5.93 5.38-10.01 4.82-1.11 0-1.3-.74-1.48-1.67-1.11-23.36 1.85-47.09-1.3-70.27-3.15-17.99-25.96-7.05-30.41 4.63-1.48-5.19 8.9-14.09 13.53-15.76M927.43 105.08c2.41-3.89 5.01-7.6 7.6-11.31 6.49-7.97 14.28-14.28 23.73-18.54 3.34-1.48 7.05-2.6 10.94-2.41 4.82 0 9.27 1.48 12.24 5.75 1.67 2.6 1.85 5.56 1.85 8.34-.19 4.63-2.22 8.71-4.82 12.42-4.64 5.56-10.76 9.64-17.43 12.98-6.12 3.15-12.61 5.38-19.47 6.86-2.6.74-5.38.74-8.16 1.11-.56 0-.93.19-1.11.74-1.3 4.63-2.23 9.09-2.23 14.09.19 2.78.74 5.56 2.04 8.34 1.85 4.26 5.19 6.67 9.83 7.42 5.93 1.11 11.68-.37 16.69-3.34 5.38-2.78 9.64-6.86 13.35-11.31 2.78-3.15 4.82-6.3 6.68-9.83.37-.56.56-.93.93-1.48.19-.19.74-.56.93-.37s.56.74.37.93c0 .74-.19 1.3-.37 2.04-1.48 3.15-3.52 5.75-5.38 8.34-3.52 4.45-7.6 8.16-12.05 11.68-4.82 3.52-10.38 6.12-16.32 6.86-7.05.74-13.53 0-19.28-3.89-4.82-3.15-7.42-7.6-8.34-12.98-.19-2.41-.19-4.63-.37-6.67.56-9.46 3.15-17.99 8.16-25.77Zm12.61 12.24c5.56-1.3 10.94-2.97 15.95-5.93 4.64-2.6 8.9-5.93 12.05-10.01 3.71-4.64 6.12-9.64 6.86-15.2.56-2.6.74-5.38-.19-7.97-.56-2.04-2.04-2.78-4.26-2.97-2.41-.19-4.64.74-6.68 2.04-5.01 3.15-9.46 7.42-13.35 11.87-3.89 4.82-7.05 10.2-10.01 15.39-2.6 4.45-4.82 8.71-6.3 13.53 2.04-.37 4.08-.37 5.93-.74Z"/>
</g>
</svg>